<mxfile host="app.diagrams.net" modified="2024-01-16T16:08:05.491Z" agent="Mozilla/5.0 (Windows NT 10.0; Win64; x64) AppleWebKit/537.36 (KHTML, like Gecko) Chrome/109.0.0.0 Safari/537.36" etag="2elaEWoX-wg4yGqytgos" version="22.1.18" type="device" pages="3">
  <diagram name="flowchart" id="hvCB5gVMHZ1kKz0cQETF">
    <mxGraphModel dx="1817" dy="451" grid="0" gridSize="10" guides="1" tooltips="1" connect="1" arrows="1" fold="1" page="1" pageScale="1" pageWidth="827" pageHeight="1169" math="0" shadow="0">
      <root>
        <mxCell id="0" />
        <mxCell id="1" parent="0" />
        <mxCell id="YF7j6EnI3jrVss77db4w-6" style="edgeStyle=none;curved=1;rounded=0;orthogonalLoop=1;jettySize=auto;html=1;entryX=0.5;entryY=0;entryDx=0;entryDy=0;fontSize=12;startSize=8;endSize=8;" parent="1" source="YF7j6EnI3jrVss77db4w-4" target="YF7j6EnI3jrVss77db4w-5" edge="1">
          <mxGeometry relative="1" as="geometry" />
        </mxCell>
        <mxCell id="YF7j6EnI3jrVss77db4w-4" value="start" style="ellipse;whiteSpace=wrap;html=1;fontSize=16;" parent="1" vertex="1">
          <mxGeometry x="387" y="383" width="80" height="80" as="geometry" />
        </mxCell>
        <mxCell id="YF7j6EnI3jrVss77db4w-13" style="edgeStyle=none;curved=1;rounded=0;orthogonalLoop=1;jettySize=auto;html=1;fontSize=12;startSize=8;endSize=8;" parent="1" source="YF7j6EnI3jrVss77db4w-5" edge="1">
          <mxGeometry relative="1" as="geometry">
            <mxPoint x="427" y="631.2068965517242" as="targetPoint" />
          </mxGeometry>
        </mxCell>
        <mxCell id="YF7j6EnI3jrVss77db4w-5" value="LoginView" style="whiteSpace=wrap;html=1;fontSize=16;" parent="1" vertex="1">
          <mxGeometry x="367" y="521" width="120" height="60" as="geometry" />
        </mxCell>
        <mxCell id="YF7j6EnI3jrVss77db4w-9" style="edgeStyle=none;curved=1;rounded=0;orthogonalLoop=1;jettySize=auto;html=1;fontSize=12;startSize=8;endSize=8;" parent="1" source="YF7j6EnI3jrVss77db4w-8" edge="1">
          <mxGeometry relative="1" as="geometry">
            <mxPoint x="543.8962068965518" y="857" as="targetPoint" />
          </mxGeometry>
        </mxCell>
        <mxCell id="YF7j6EnI3jrVss77db4w-12" value="no" style="edgeLabel;html=1;align=center;verticalAlign=middle;resizable=0;points=[];fontSize=16;" parent="YF7j6EnI3jrVss77db4w-9" vertex="1" connectable="0">
          <mxGeometry x="-0.0678" y="-1" relative="1" as="geometry">
            <mxPoint as="offset" />
          </mxGeometry>
        </mxCell>
        <mxCell id="YF7j6EnI3jrVss77db4w-10" style="edgeStyle=none;curved=1;rounded=0;orthogonalLoop=1;jettySize=auto;html=1;fontSize=12;startSize=8;endSize=8;" parent="1" source="YF7j6EnI3jrVss77db4w-8" edge="1">
          <mxGeometry relative="1" as="geometry">
            <mxPoint x="296.99965517241384" y="857" as="targetPoint" />
          </mxGeometry>
        </mxCell>
        <mxCell id="YF7j6EnI3jrVss77db4w-11" value="yes" style="edgeLabel;html=1;align=center;verticalAlign=middle;resizable=0;points=[];fontSize=16;" parent="YF7j6EnI3jrVss77db4w-10" vertex="1" connectable="0">
          <mxGeometry x="-0.2653" y="-1" relative="1" as="geometry">
            <mxPoint as="offset" />
          </mxGeometry>
        </mxCell>
        <mxCell id="YF7j6EnI3jrVss77db4w-8" value="is registered?" style="rhombus;whiteSpace=wrap;html=1;fontSize=16;" parent="1" vertex="1">
          <mxGeometry x="373.31" y="792" width="106" height="130" as="geometry" />
        </mxCell>
        <mxCell id="YF7j6EnI3jrVss77db4w-15" style="edgeStyle=none;curved=1;rounded=0;orthogonalLoop=1;jettySize=auto;html=1;entryX=0.5;entryY=0;entryDx=0;entryDy=0;fontSize=12;startSize=8;endSize=8;" parent="1" source="YF7j6EnI3jrVss77db4w-14" target="YF7j6EnI3jrVss77db4w-8" edge="1">
          <mxGeometry relative="1" as="geometry" />
        </mxCell>
        <mxCell id="YF7j6EnI3jrVss77db4w-14" value="input&lt;br&gt;username&lt;br&gt;password" style="shape=parallelogram;perimeter=parallelogramPerimeter;whiteSpace=wrap;html=1;fixedSize=1;fontSize=16;" parent="1" vertex="1">
          <mxGeometry x="366.31" y="632" width="120" height="60" as="geometry" />
        </mxCell>
        <mxCell id="YF7j6EnI3jrVss77db4w-18" style="edgeStyle=none;curved=1;rounded=0;orthogonalLoop=1;jettySize=auto;html=1;fontSize=12;startSize=8;endSize=8;" parent="1" source="YF7j6EnI3jrVss77db4w-16" edge="1">
          <mxGeometry relative="1" as="geometry">
            <mxPoint x="714" y="857" as="targetPoint" />
          </mxGeometry>
        </mxCell>
        <mxCell id="YF7j6EnI3jrVss77db4w-16" value="RegisterView" style="whiteSpace=wrap;html=1;fontSize=16;" parent="1" vertex="1">
          <mxGeometry x="545" y="827" width="120" height="60" as="geometry" />
        </mxCell>
        <mxCell id="YF7j6EnI3jrVss77db4w-20" style="edgeStyle=none;curved=1;rounded=0;orthogonalLoop=1;jettySize=auto;html=1;fontSize=12;startSize=8;endSize=8;" parent="1" source="YF7j6EnI3jrVss77db4w-19" edge="1">
          <mxGeometry relative="1" as="geometry">
            <mxPoint x="777" y="969.8275862068965" as="targetPoint" />
          </mxGeometry>
        </mxCell>
        <mxCell id="YF7j6EnI3jrVss77db4w-19" value="input&lt;br&gt;name&lt;br&gt;username&lt;br&gt;password" style="shape=parallelogram;perimeter=parallelogramPerimeter;whiteSpace=wrap;html=1;fixedSize=1;fontSize=16;" parent="1" vertex="1">
          <mxGeometry x="705" y="818" width="144" height="78" as="geometry" />
        </mxCell>
        <mxCell id="YF7j6EnI3jrVss77db4w-22" value="already&lt;br&gt;exist?" style="rhombus;whiteSpace=wrap;html=1;fontSize=16;" parent="1" vertex="1">
          <mxGeometry x="731" y="969" width="92" height="92" as="geometry" />
        </mxCell>
        <mxCell id="YF7j6EnI3jrVss77db4w-26" value="" style="edgeStyle=segmentEdgeStyle;endArrow=classic;html=1;curved=0;rounded=0;endSize=8;startSize=8;sourcePerimeterSpacing=0;targetPerimeterSpacing=0;fontSize=12;exitX=1;exitY=0.5;exitDx=0;exitDy=0;" parent="1" source="YF7j6EnI3jrVss77db4w-22" target="YF7j6EnI3jrVss77db4w-5" edge="1">
          <mxGeometry width="140" relative="1" as="geometry">
            <mxPoint x="960" y="913" as="sourcePoint" />
            <mxPoint x="975" y="682" as="targetPoint" />
            <Array as="points">
              <mxPoint x="933" y="1015" />
              <mxPoint x="933" y="551" />
            </Array>
          </mxGeometry>
        </mxCell>
        <mxCell id="YF7j6EnI3jrVss77db4w-28" value="no" style="edgeLabel;html=1;align=center;verticalAlign=middle;resizable=0;points=[];fontSize=16;" parent="YF7j6EnI3jrVss77db4w-26" vertex="1" connectable="0">
          <mxGeometry x="-0.9169" y="-1" relative="1" as="geometry">
            <mxPoint as="offset" />
          </mxGeometry>
        </mxCell>
        <mxCell id="YF7j6EnI3jrVss77db4w-29" value="" style="edgeStyle=segmentEdgeStyle;endArrow=classic;html=1;curved=0;rounded=0;endSize=8;startSize=8;sourcePerimeterSpacing=0;targetPerimeterSpacing=0;fontSize=12;entryX=0.5;entryY=1;entryDx=0;entryDy=0;exitX=0;exitY=0.5;exitDx=0;exitDy=0;" parent="1" source="YF7j6EnI3jrVss77db4w-22" target="YF7j6EnI3jrVss77db4w-16" edge="1">
          <mxGeometry width="140" relative="1" as="geometry">
            <mxPoint x="709" y="1035" as="sourcePoint" />
            <mxPoint x="518" y="1043" as="targetPoint" />
            <Array as="points">
              <mxPoint x="605" y="1015" />
            </Array>
          </mxGeometry>
        </mxCell>
        <mxCell id="YF7j6EnI3jrVss77db4w-30" value="yes" style="edgeLabel;html=1;align=center;verticalAlign=middle;resizable=0;points=[];fontSize=16;" parent="YF7j6EnI3jrVss77db4w-29" vertex="1" connectable="0">
          <mxGeometry x="-0.7269" y="-1" relative="1" as="geometry">
            <mxPoint as="offset" />
          </mxGeometry>
        </mxCell>
        <mxCell id="D481h-x0SHpzTMhxplPq-2" style="edgeStyle=none;curved=1;rounded=0;orthogonalLoop=1;jettySize=auto;html=1;fontSize=12;startSize=8;endSize=8;" parent="1" source="YF7j6EnI3jrVss77db4w-39" target="D481h-x0SHpzTMhxplPq-1" edge="1">
          <mxGeometry relative="1" as="geometry" />
        </mxCell>
        <mxCell id="D481h-x0SHpzTMhxplPq-24" value="" style="edgeStyle=none;curved=1;rounded=0;orthogonalLoop=1;jettySize=auto;html=1;fontSize=12;startSize=8;endSize=8;" parent="1" source="YF7j6EnI3jrVss77db4w-39" target="D481h-x0SHpzTMhxplPq-23" edge="1">
          <mxGeometry relative="1" as="geometry" />
        </mxCell>
        <mxCell id="YF7j6EnI3jrVss77db4w-39" value="DashboardView" style="whiteSpace=wrap;html=1;fontSize=16;" parent="1" vertex="1">
          <mxGeometry x="177.00275862068966" y="826.9993103448277" width="120" height="60" as="geometry" />
        </mxCell>
        <mxCell id="D481h-x0SHpzTMhxplPq-6" style="edgeStyle=none;curved=1;rounded=0;orthogonalLoop=1;jettySize=auto;html=1;fontSize=12;startSize=8;endSize=8;" parent="1" source="D481h-x0SHpzTMhxplPq-1" target="D481h-x0SHpzTMhxplPq-5" edge="1">
          <mxGeometry relative="1" as="geometry" />
        </mxCell>
        <mxCell id="D481h-x0SHpzTMhxplPq-1" value="BorrowView" style="whiteSpace=wrap;html=1;fontSize=16;" parent="1" vertex="1">
          <mxGeometry x="177" y="957" width="120" height="60" as="geometry" />
        </mxCell>
        <mxCell id="D481h-x0SHpzTMhxplPq-8" value="" style="edgeStyle=none;curved=1;rounded=0;orthogonalLoop=1;jettySize=auto;html=1;fontSize=12;startSize=8;endSize=8;" parent="1" source="D481h-x0SHpzTMhxplPq-5" target="D481h-x0SHpzTMhxplPq-7" edge="1">
          <mxGeometry relative="1" as="geometry" />
        </mxCell>
        <mxCell id="D481h-x0SHpzTMhxplPq-5" value="input&lt;br&gt;" style="shape=parallelogram;perimeter=parallelogramPerimeter;whiteSpace=wrap;html=1;fixedSize=1;fontSize=16;" parent="1" vertex="1">
          <mxGeometry x="162" y="1096" width="150" height="99" as="geometry" />
        </mxCell>
        <mxCell id="D481h-x0SHpzTMhxplPq-7" value="is valid?" style="rhombus;whiteSpace=wrap;html=1;fontSize=16;" parent="1" vertex="1">
          <mxGeometry x="197" y="1324.5" width="80" height="80" as="geometry" />
        </mxCell>
        <mxCell id="D481h-x0SHpzTMhxplPq-10" value="" style="edgeStyle=segmentEdgeStyle;endArrow=classic;html=1;curved=0;rounded=0;endSize=8;startSize=8;sourcePerimeterSpacing=0;targetPerimeterSpacing=0;fontSize=12;" parent="1" source="D481h-x0SHpzTMhxplPq-7" target="YF7j6EnI3jrVss77db4w-39" edge="1">
          <mxGeometry width="140" relative="1" as="geometry">
            <mxPoint x="293.69" y="1368" as="sourcePoint" />
            <mxPoint x="338" y="909" as="targetPoint" />
            <Array as="points">
              <mxPoint x="342" y="1365" />
              <mxPoint x="342" y="876" />
            </Array>
          </mxGeometry>
        </mxCell>
        <mxCell id="D481h-x0SHpzTMhxplPq-11" value="yes" style="edgeLabel;html=1;align=center;verticalAlign=middle;resizable=0;points=[];fontSize=16;" parent="D481h-x0SHpzTMhxplPq-10" vertex="1" connectable="0">
          <mxGeometry x="-0.9131" y="2" relative="1" as="geometry">
            <mxPoint y="1" as="offset" />
          </mxGeometry>
        </mxCell>
        <mxCell id="D481h-x0SHpzTMhxplPq-21" value="" style="edgeStyle=segmentEdgeStyle;endArrow=classic;html=1;curved=0;rounded=0;endSize=8;startSize=8;sourcePerimeterSpacing=0;targetPerimeterSpacing=0;fontSize=12;" parent="1" source="D481h-x0SHpzTMhxplPq-7" target="D481h-x0SHpzTMhxplPq-1" edge="1">
          <mxGeometry width="140" relative="1" as="geometry">
            <mxPoint x="-86" y="1159" as="sourcePoint" />
            <mxPoint x="96" y="1222" as="targetPoint" />
            <Array as="points">
              <mxPoint x="131" y="1365" />
              <mxPoint x="131" y="987" />
            </Array>
          </mxGeometry>
        </mxCell>
        <mxCell id="D481h-x0SHpzTMhxplPq-22" value="no" style="edgeLabel;html=1;align=center;verticalAlign=middle;resizable=0;points=[];fontSize=16;" parent="D481h-x0SHpzTMhxplPq-21" vertex="1" connectable="0">
          <mxGeometry x="-0.8856" y="2" relative="1" as="geometry">
            <mxPoint as="offset" />
          </mxGeometry>
        </mxCell>
        <mxCell id="D481h-x0SHpzTMhxplPq-23" value="MeView" style="whiteSpace=wrap;html=1;fontSize=16;" parent="1" vertex="1">
          <mxGeometry x="-62.99724137931034" y="826.9993103448277" width="120" height="60" as="geometry" />
        </mxCell>
      </root>
    </mxGraphModel>
  </diagram>
  <diagram id="cVw97Bq2jY-igEBObGxz" name="UML">
    <mxGraphModel dx="1770" dy="477" grid="0" gridSize="10" guides="1" tooltips="1" connect="1" arrows="1" fold="1" page="1" pageScale="1" pageWidth="827" pageHeight="1169" math="0" shadow="0">
      <root>
        <mxCell id="0" />
        <mxCell id="1" parent="0" />
        <mxCell id="w21jdZGpLvWU5Fl-9hNc-13" value="" style="edgeStyle=none;curved=1;rounded=0;orthogonalLoop=1;jettySize=auto;html=1;fontSize=12;startSize=8;endSize=8;" parent="1" source="iTTtU6-NzKAy4wD7eUAg-2" target="w21jdZGpLvWU5Fl-9hNc-2" edge="1">
          <mxGeometry relative="1" as="geometry">
            <Array as="points">
              <mxPoint x="21" y="243" />
            </Array>
          </mxGeometry>
        </mxCell>
        <mxCell id="iTTtU6-NzKAy4wD7eUAg-2" value="LoginView&lt;br&gt;-----------------------------&lt;br&gt;-JFrame frame&lt;br&gt;-JPanel loginPanel&lt;br&gt;-----------------------------&lt;br&gt;+LoginView()&lt;br&gt;+initView()&lt;br&gt;+applyCircularMask()&lt;br&gt;+RoundedBorder()&lt;br&gt;" style="rounded=0;whiteSpace=wrap;html=1;fontSize=16;" parent="1" vertex="1">
          <mxGeometry x="-59" y="335" width="160" height="207" as="geometry" />
        </mxCell>
        <mxCell id="w21jdZGpLvWU5Fl-9hNc-16" style="edgeStyle=none;curved=1;rounded=0;orthogonalLoop=1;jettySize=auto;html=1;fontSize=12;startSize=8;endSize=8;" parent="1" source="iTTtU6-NzKAy4wD7eUAg-3" target="w21jdZGpLvWU5Fl-9hNc-10" edge="1">
          <mxGeometry relative="1" as="geometry">
            <mxPoint x="643" y="323" as="sourcePoint" />
            <mxPoint x="646" y="132" as="targetPoint" />
          </mxGeometry>
        </mxCell>
        <mxCell id="iTTtU6-NzKAy4wD7eUAg-3" value="DashboardView&lt;br&gt;-----------------------------&lt;br&gt;+DashboardView()" style="rounded=0;whiteSpace=wrap;html=1;fontSize=16;" parent="1" vertex="1">
          <mxGeometry x="597" y="305" width="160" height="79" as="geometry" />
        </mxCell>
        <mxCell id="w21jdZGpLvWU5Fl-9hNc-19" style="edgeStyle=none;curved=1;rounded=0;orthogonalLoop=1;jettySize=auto;html=1;fontSize=12;startSize=8;endSize=8;" parent="1" source="w21jdZGpLvWU5Fl-9hNc-2" edge="1">
          <mxGeometry relative="1" as="geometry">
            <mxPoint x="837" y="113" as="targetPoint" />
          </mxGeometry>
        </mxCell>
        <mxCell id="w21jdZGpLvWU5Fl-9hNc-2" value="LoginController&lt;br&gt;------------------------------------&lt;br&gt;-JFrame frame&lt;br&gt;-JPanel loginPanel&lt;br&gt;------------------------------------&lt;br&gt;+LoginController()&lt;br&gt;+ifUserExist()&lt;br&gt;+displayWelcomeView()&lt;br&gt;+displayRegisterView()" style="rounded=0;whiteSpace=wrap;html=1;fontSize=16;" parent="1" vertex="1">
          <mxGeometry x="-77" y="9" width="196" height="207" as="geometry" />
        </mxCell>
        <mxCell id="w21jdZGpLvWU5Fl-9hNc-3" value="RegisterController&lt;br&gt;-----------------------------&lt;br&gt;+RegisterController()&lt;br&gt;+toCreateUser()" style="rounded=0;whiteSpace=wrap;html=1;fontSize=16;" parent="1" vertex="1">
          <mxGeometry x="175" y="29" width="157" height="121" as="geometry" />
        </mxCell>
        <mxCell id="w21jdZGpLvWU5Fl-9hNc-6" value="UserController&lt;br&gt;--------------------------------&lt;br&gt;-JFrame frame&lt;br&gt;-JPanel loginPanel&lt;br&gt;--------------------------------&lt;br&gt;+ifUserExist()&lt;br&gt;+displayWelcomeView()&lt;br&gt;+toCreateUser()" style="rounded=0;whiteSpace=wrap;html=1;fontSize=16;" parent="1" vertex="1">
          <mxGeometry x="401" y="26" width="173" height="192" as="geometry" />
        </mxCell>
        <mxCell id="w21jdZGpLvWU5Fl-9hNc-14" style="edgeStyle=none;curved=1;rounded=0;orthogonalLoop=1;jettySize=auto;html=1;fontSize=12;startSize=8;endSize=8;" parent="1" source="w21jdZGpLvWU5Fl-9hNc-7" target="w21jdZGpLvWU5Fl-9hNc-3" edge="1">
          <mxGeometry relative="1" as="geometry" />
        </mxCell>
        <mxCell id="w21jdZGpLvWU5Fl-9hNc-7" value="RegisterView&lt;br&gt;-------------------------------&lt;br&gt;-JFrame frame&lt;br&gt;-------------------------------&lt;br&gt;+RegisterView()&lt;br&gt;-styleButton()&lt;br&gt;-showTermsWindow()" style="rounded=0;whiteSpace=wrap;html=1;fontSize=16;" parent="1" vertex="1">
          <mxGeometry x="168" y="330" width="173" height="167" as="geometry" />
        </mxCell>
        <mxCell id="w21jdZGpLvWU5Fl-9hNc-15" style="edgeStyle=none;curved=1;rounded=0;orthogonalLoop=1;jettySize=auto;html=1;fontSize=12;startSize=8;endSize=8;" parent="1" source="w21jdZGpLvWU5Fl-9hNc-8" target="w21jdZGpLvWU5Fl-9hNc-6" edge="1">
          <mxGeometry relative="1" as="geometry" />
        </mxCell>
        <mxCell id="w21jdZGpLvWU5Fl-9hNc-8" value="UserModel&lt;br&gt;-------------------------------&lt;br&gt;-JFrame frame&lt;br&gt;-JPanel loginPanel&lt;br&gt;-------------------------------&lt;br&gt;+UserModel()&lt;br&gt;+toCreateUser()&lt;br&gt;+readUser()&lt;br&gt;+ifUserExist()&lt;br&gt;+createFile()&lt;br&gt;+userOrNameExists()&lt;br&gt;+getUserNotification()&lt;br&gt;" style="rounded=0;whiteSpace=wrap;html=1;fontSize=16;" parent="1" vertex="1">
          <mxGeometry x="401" y="326" width="173" height="266" as="geometry" />
        </mxCell>
        <mxCell id="w21jdZGpLvWU5Fl-9hNc-10" value="DashboardController&lt;br&gt;----------------------------------+DashboardController()" style="rounded=0;whiteSpace=wrap;html=1;fontSize=16;" parent="1" vertex="1">
          <mxGeometry x="624" y="26" width="188" height="97" as="geometry" />
        </mxCell>
        <mxCell id="w21jdZGpLvWU5Fl-9hNc-21" style="edgeStyle=none;curved=1;rounded=0;orthogonalLoop=1;jettySize=auto;html=1;fontSize=12;startSize=8;endSize=8;" parent="1" source="w21jdZGpLvWU5Fl-9hNc-20" target="w21jdZGpLvWU5Fl-9hNc-10" edge="1">
          <mxGeometry relative="1" as="geometry" />
        </mxCell>
        <mxCell id="w21jdZGpLvWU5Fl-9hNc-20" value="BorrowView&lt;br&gt;-----------------------------&lt;br&gt;+BorrowView()&lt;br&gt;-notificationPrompt() void" style="rounded=0;whiteSpace=wrap;html=1;fontSize=16;" parent="1" vertex="1">
          <mxGeometry x="766" y="297" width="183" height="90" as="geometry" />
        </mxCell>
        <mxCell id="w21jdZGpLvWU5Fl-9hNc-23" style="edgeStyle=none;curved=1;rounded=0;orthogonalLoop=1;jettySize=auto;html=1;fontSize=12;startSize=8;endSize=8;" parent="1" source="w21jdZGpLvWU5Fl-9hNc-22" target="w21jdZGpLvWU5Fl-9hNc-10" edge="1">
          <mxGeometry relative="1" as="geometry" />
        </mxCell>
        <mxCell id="w21jdZGpLvWU5Fl-9hNc-22" value="MeView&lt;br&gt;-----------------------------&lt;br&gt;+MeView()&lt;br&gt;+displayBalance() void" style="rounded=0;whiteSpace=wrap;html=1;fontSize=16;" parent="1" vertex="1">
          <mxGeometry x="958" y="299.5" width="173" height="90" as="geometry" />
        </mxCell>
        <mxCell id="w21jdZGpLvWU5Fl-9hNc-25" style="edgeStyle=none;curved=1;rounded=0;orthogonalLoop=1;jettySize=auto;html=1;fontSize=12;startSize=8;endSize=8;exitX=0.388;exitY=0;exitDx=0;exitDy=0;exitPerimeter=0;" parent="1" source="w21jdZGpLvWU5Fl-9hNc-24" target="w21jdZGpLvWU5Fl-9hNc-10" edge="1">
          <mxGeometry relative="1" as="geometry" />
        </mxCell>
        <mxCell id="w21jdZGpLvWU5Fl-9hNc-24" value="PremiumView&lt;br&gt;-----------------------------&lt;br&gt;+PremiumView()&lt;br&gt;" style="rounded=0;whiteSpace=wrap;html=1;fontSize=16;" parent="1" vertex="1">
          <mxGeometry x="1139" y="302" width="160" height="90" as="geometry" />
        </mxCell>
        <mxCell id="bzKlMkC6QkK7C2yaiwDj-2" style="edgeStyle=none;curved=1;rounded=0;orthogonalLoop=1;jettySize=auto;html=1;exitX=0;exitY=0;exitDx=0;exitDy=0;fontSize=12;startSize=8;endSize=8;" parent="1" source="w21jdZGpLvWU5Fl-9hNc-26" target="w21jdZGpLvWU5Fl-9hNc-10" edge="1">
          <mxGeometry relative="1" as="geometry" />
        </mxCell>
        <mxCell id="w21jdZGpLvWU5Fl-9hNc-26" value="AdminView&lt;br&gt;----------------------------------------------------&lt;br&gt;-&amp;nbsp;ArrayList &amp;lt; String &amp;gt; pendingRequests&lt;br&gt;----------------------------------------------------&lt;br&gt;+AdminView()&lt;br&gt;-displayUserInformation() void&lt;br&gt;-updateUserDataFile() void&lt;br&gt;-displayTransactionInformation() void&lt;br&gt;-updateTransactionDataFile() void&lt;br&gt;+notifyUsers() void&lt;br&gt;-isValidUser() boolean&lt;br&gt;-updateBalance() void&lt;br&gt;" style="rounded=0;whiteSpace=wrap;html=1;fontSize=16;" parent="1" vertex="1">
          <mxGeometry x="1314" y="274" width="280" height="257" as="geometry" />
        </mxCell>
      </root>
    </mxGraphModel>
  </diagram>
  <diagram id="eUo2UwF9j_Y6Rych9ax2" name="Page-3">
    <mxGraphModel dx="3592" dy="761" grid="0" gridSize="10" guides="1" tooltips="1" connect="1" arrows="1" fold="1" page="0" pageScale="1" pageWidth="827" pageHeight="1169" math="0" shadow="0">
      <root>
        <mxCell id="0" />
        <mxCell id="1" parent="0" />
        <mxCell id="p7RISHiRZkopp5e0XHYU-1" value="login" style="swimlane;html=1;childLayout=stackLayout;startSize=20;rounded=0;shadow=0;labelBackgroundColor=none;strokeWidth=1;fontFamily=Verdana;fontSize=8;align=center;" parent="1" vertex="1">
          <mxGeometry x="15" y="3" width="729.49" height="758" as="geometry">
            <mxRectangle x="20" y="20" width="55" height="22" as="alternateBounds" />
          </mxGeometry>
        </mxCell>
        <mxCell id="p7RISHiRZkopp5e0XHYU-2" value="LoginView" style="swimlane;html=1;startSize=20;fontSize=16;" parent="p7RISHiRZkopp5e0XHYU-1" vertex="1">
          <mxGeometry y="20" width="406.49" height="738" as="geometry" />
        </mxCell>
        <mxCell id="wLT4fBUr7erfaKJgexdD-80" style="edgeStyle=none;curved=1;rounded=0;orthogonalLoop=1;jettySize=auto;html=1;fontSize=12;startSize=8;endSize=8;" parent="p7RISHiRZkopp5e0XHYU-2" source="Gu_BaMaQTISLCcTfBu7D-1" edge="1">
          <mxGeometry relative="1" as="geometry">
            <mxPoint x="203.25" y="179.00000000000023" as="targetPoint" />
          </mxGeometry>
        </mxCell>
        <mxCell id="PC0ZWLZjWZ4Z5OmDZpfl-71" style="edgeStyle=none;curved=1;rounded=0;orthogonalLoop=1;jettySize=auto;html=1;fontSize=12;startSize=8;endSize=8;" parent="p7RISHiRZkopp5e0XHYU-2" source="Gu_BaMaQTISLCcTfBu7D-1" target="wLT4fBUr7erfaKJgexdD-103" edge="1">
          <mxGeometry relative="1" as="geometry" />
        </mxCell>
        <mxCell id="Gu_BaMaQTISLCcTfBu7D-1" value="start" style="ellipse;whiteSpace=wrap;html=1;fontSize=16;" parent="p7RISHiRZkopp5e0XHYU-2" vertex="1">
          <mxGeometry x="174.92000000000002" y="47" width="56.66" height="60" as="geometry" />
        </mxCell>
        <mxCell id="PC0ZWLZjWZ4Z5OmDZpfl-74" value="" style="edgeStyle=none;curved=1;rounded=0;orthogonalLoop=1;jettySize=auto;html=1;fontSize=12;startSize=8;endSize=8;" parent="p7RISHiRZkopp5e0XHYU-2" source="wLT4fBUr7erfaKJgexdD-103" target="PC0ZWLZjWZ4Z5OmDZpfl-73" edge="1">
          <mxGeometry relative="1" as="geometry" />
        </mxCell>
        <mxCell id="wLT4fBUr7erfaKJgexdD-103" value="LoginView" style="whiteSpace=wrap;html=1;fontSize=16;" parent="p7RISHiRZkopp5e0XHYU-2" vertex="1">
          <mxGeometry x="143.25" y="135" width="120" height="60" as="geometry" />
        </mxCell>
        <mxCell id="wLT4fBUr7erfaKJgexdD-106" value="is registered?" style="rhombus;whiteSpace=wrap;html=1;fontSize=16;" parent="p7RISHiRZkopp5e0XHYU-2" vertex="1">
          <mxGeometry x="143.88" y="321" width="118.75" height="112" as="geometry" />
        </mxCell>
        <mxCell id="PC0ZWLZjWZ4Z5OmDZpfl-52" style="edgeStyle=none;curved=1;rounded=0;orthogonalLoop=1;jettySize=auto;html=1;entryX=0;entryY=0.5;entryDx=0;entryDy=0;fontSize=12;startSize=8;endSize=8;exitX=0;exitY=0.5;exitDx=0;exitDy=0;" parent="p7RISHiRZkopp5e0XHYU-2" source="PC0ZWLZjWZ4Z5OmDZpfl-50" target="wLT4fBUr7erfaKJgexdD-103" edge="1">
          <mxGeometry relative="1" as="geometry">
            <Array as="points">
              <mxPoint x="70" y="402" />
            </Array>
          </mxGeometry>
        </mxCell>
        <mxCell id="PC0ZWLZjWZ4Z5OmDZpfl-50" value="prompt not registered" style="whiteSpace=wrap;html=1;fontSize=16;" parent="p7RISHiRZkopp5e0XHYU-2" vertex="1">
          <mxGeometry x="143.24" y="558" width="120" height="60" as="geometry" />
        </mxCell>
        <mxCell id="PC0ZWLZjWZ4Z5OmDZpfl-75" value="" style="edgeStyle=none;curved=1;rounded=0;orthogonalLoop=1;jettySize=auto;html=1;fontSize=12;startSize=8;endSize=8;" parent="p7RISHiRZkopp5e0XHYU-2" source="PC0ZWLZjWZ4Z5OmDZpfl-73" target="wLT4fBUr7erfaKJgexdD-106" edge="1">
          <mxGeometry relative="1" as="geometry" />
        </mxCell>
        <mxCell id="PC0ZWLZjWZ4Z5OmDZpfl-73" value="input &lt;br&gt;username&lt;br&gt;password" style="shape=parallelogram;perimeter=parallelogramPerimeter;whiteSpace=wrap;html=1;fixedSize=1;fontSize=16;" parent="p7RISHiRZkopp5e0XHYU-2" vertex="1">
          <mxGeometry x="135.24" y="224" width="136" height="68" as="geometry" />
        </mxCell>
        <mxCell id="wLT4fBUr7erfaKJgexdD-85" value="" style="edgeStyle=segmentEdgeStyle;endArrow=classic;html=1;curved=0;rounded=0;endSize=8;startSize=8;sourcePerimeterSpacing=0;targetPerimeterSpacing=0;fontSize=12;" parent="p7RISHiRZkopp5e0XHYU-1" source="wLT4fBUr7erfaKJgexdD-106" target="wLT4fBUr7erfaKJgexdD-84" edge="1">
          <mxGeometry width="140" relative="1" as="geometry">
            <mxPoint x="295" y="250" as="sourcePoint" />
            <mxPoint x="373" y="323" as="targetPoint" />
            <Array as="points">
              <mxPoint x="333" y="398" />
              <mxPoint x="333" y="102" />
            </Array>
          </mxGeometry>
        </mxCell>
        <mxCell id="wLT4fBUr7erfaKJgexdD-110" value="NO" style="edgeLabel;html=1;align=center;verticalAlign=middle;resizable=0;points=[];fontSize=16;" parent="wLT4fBUr7erfaKJgexdD-85" vertex="1" connectable="0">
          <mxGeometry x="-0.8641" y="-2" relative="1" as="geometry">
            <mxPoint as="offset" />
          </mxGeometry>
        </mxCell>
        <mxCell id="p7RISHiRZkopp5e0XHYU-21" value="LoginController" style="swimlane;html=1;startSize=20;fontSize=16;" parent="p7RISHiRZkopp5e0XHYU-1" vertex="1">
          <mxGeometry x="406.49" y="20" width="323" height="738" as="geometry">
            <mxRectangle x="330" y="20" width="37" height="730" as="alternateBounds" />
          </mxGeometry>
        </mxCell>
        <mxCell id="wLT4fBUr7erfaKJgexdD-84" value="Display RegisterView" style="whiteSpace=wrap;html=1;fontSize=16;" parent="p7RISHiRZkopp5e0XHYU-21" vertex="1">
          <mxGeometry x="101.49999999999999" y="52" width="120" height="60" as="geometry" />
        </mxCell>
        <mxCell id="PC0ZWLZjWZ4Z5OmDZpfl-30" value="Display LoginView" style="whiteSpace=wrap;html=1;fontSize=16;" parent="p7RISHiRZkopp5e0XHYU-21" vertex="1">
          <mxGeometry x="101.5" y="185" width="120" height="60" as="geometry" />
        </mxCell>
        <mxCell id="PC0ZWLZjWZ4Z5OmDZpfl-35" value="Check if registered" style="whiteSpace=wrap;html=1;fontSize=16;" parent="p7RISHiRZkopp5e0XHYU-21" vertex="1">
          <mxGeometry x="101.5" y="445" width="120" height="60" as="geometry" />
        </mxCell>
        <mxCell id="PC0ZWLZjWZ4Z5OmDZpfl-48" value="prompt not registered" style="whiteSpace=wrap;html=1;fontSize=16;" parent="p7RISHiRZkopp5e0XHYU-21" vertex="1">
          <mxGeometry x="101.5" y="558" width="120" height="60" as="geometry" />
        </mxCell>
        <mxCell id="PC0ZWLZjWZ4Z5OmDZpfl-31" style="edgeStyle=none;curved=1;rounded=0;orthogonalLoop=1;jettySize=auto;html=1;fontSize=12;startSize=8;endSize=8;" parent="p7RISHiRZkopp5e0XHYU-1" source="PC0ZWLZjWZ4Z5OmDZpfl-30" target="wLT4fBUr7erfaKJgexdD-103" edge="1">
          <mxGeometry relative="1" as="geometry" />
        </mxCell>
        <mxCell id="wLT4fBUr7erfaKJgexdD-34" value="" style="edgeStyle=segmentEdgeStyle;endArrow=classic;html=1;curved=0;rounded=0;endSize=8;startSize=8;sourcePerimeterSpacing=0;targetPerimeterSpacing=0;fontSize=12;" parent="p7RISHiRZkopp5e0XHYU-1" source="wLT4fBUr7erfaKJgexdD-106" target="PC0ZWLZjWZ4Z5OmDZpfl-35" edge="1">
          <mxGeometry width="140" relative="1" as="geometry">
            <mxPoint x="142" y="872" as="sourcePoint" />
            <mxPoint x="514" y="494" as="targetPoint" />
            <Array as="points">
              <mxPoint x="203" y="495" />
            </Array>
          </mxGeometry>
        </mxCell>
        <mxCell id="PC0ZWLZjWZ4Z5OmDZpfl-34" value="YES" style="edgeLabel;html=1;align=center;verticalAlign=middle;resizable=0;points=[];fontSize=16;" parent="wLT4fBUr7erfaKJgexdD-34" vertex="1" connectable="0">
          <mxGeometry x="-0.8907" y="-1" relative="1" as="geometry">
            <mxPoint as="offset" />
          </mxGeometry>
        </mxCell>
        <mxCell id="PC0ZWLZjWZ4Z5OmDZpfl-51" style="edgeStyle=none;curved=1;rounded=0;orthogonalLoop=1;jettySize=auto;html=1;fontSize=12;startSize=8;endSize=8;" parent="p7RISHiRZkopp5e0XHYU-1" source="PC0ZWLZjWZ4Z5OmDZpfl-48" target="PC0ZWLZjWZ4Z5OmDZpfl-50" edge="1">
          <mxGeometry relative="1" as="geometry" />
        </mxCell>
        <mxCell id="wLT4fBUr7erfaKJgexdD-11" value="dashboard" style="swimlane;html=1;childLayout=stackLayout;startSize=20;rounded=0;shadow=0;labelBackgroundColor=none;strokeWidth=1;fontFamily=Verdana;fontSize=8;align=center;" parent="1" vertex="1">
          <mxGeometry x="-2627" y="-18" width="2545" height="1664" as="geometry">
            <mxRectangle x="20" y="20" width="55" height="22" as="alternateBounds" />
          </mxGeometry>
        </mxCell>
        <mxCell id="wLT4fBUr7erfaKJgexdD-12" value="AdminView" style="swimlane;html=1;startSize=20;fontSize=16;" parent="wLT4fBUr7erfaKJgexdD-11" vertex="1">
          <mxGeometry y="20" width="330" height="1644" as="geometry" />
        </mxCell>
        <mxCell id="TbsKuATNQ9Hsx6AKkANg-1" value="AdminView" style="whiteSpace=wrap;html=1;fontSize=16;" vertex="1" parent="wLT4fBUr7erfaKJgexdD-12">
          <mxGeometry x="97" y="64" width="121" height="56" as="geometry" />
        </mxCell>
        <mxCell id="wLT4fBUr7erfaKJgexdD-20" value="PremiumView" style="swimlane;html=1;startSize=20;fontSize=16;" parent="wLT4fBUr7erfaKJgexdD-11" vertex="1">
          <mxGeometry x="330" y="20" width="300" height="1644" as="geometry" />
        </mxCell>
        <mxCell id="PC0ZWLZjWZ4Z5OmDZpfl-255" value="" style="edgeStyle=orthogonalEdgeStyle;rounded=0;orthogonalLoop=1;jettySize=auto;html=1;" parent="wLT4fBUr7erfaKJgexdD-20" source="PC0ZWLZjWZ4Z5OmDZpfl-250" target="PC0ZWLZjWZ4Z5OmDZpfl-254" edge="1">
          <mxGeometry relative="1" as="geometry" />
        </mxCell>
        <mxCell id="PC0ZWLZjWZ4Z5OmDZpfl-250" value="PremiumView" style="whiteSpace=wrap;html=1;fontSize=16;" parent="wLT4fBUr7erfaKJgexdD-20" vertex="1">
          <mxGeometry x="89.5" y="64" width="121" height="56" as="geometry" />
        </mxCell>
        <mxCell id="PC0ZWLZjWZ4Z5OmDZpfl-256" style="edgeStyle=orthogonalEdgeStyle;rounded=0;orthogonalLoop=1;jettySize=auto;html=1;" parent="wLT4fBUr7erfaKJgexdD-20" source="PC0ZWLZjWZ4Z5OmDZpfl-254" edge="1">
          <mxGeometry relative="1" as="geometry">
            <mxPoint x="552" y="59" as="targetPoint" />
            <Array as="points">
              <mxPoint x="260" y="239" />
              <mxPoint x="260" y="59" />
            </Array>
          </mxGeometry>
        </mxCell>
        <mxCell id="PC0ZWLZjWZ4Z5OmDZpfl-263" value="YES" style="edgeLabel;html=1;align=center;verticalAlign=middle;resizable=0;points=[];" parent="PC0ZWLZjWZ4Z5OmDZpfl-256" vertex="1" connectable="0">
          <mxGeometry x="-0.9218" y="1" relative="1" as="geometry">
            <mxPoint as="offset" />
          </mxGeometry>
        </mxCell>
        <mxCell id="PC0ZWLZjWZ4Z5OmDZpfl-265" value="" style="edgeStyle=orthogonalEdgeStyle;rounded=0;orthogonalLoop=1;jettySize=auto;html=1;" parent="wLT4fBUr7erfaKJgexdD-20" source="PC0ZWLZjWZ4Z5OmDZpfl-254" target="PC0ZWLZjWZ4Z5OmDZpfl-264" edge="1">
          <mxGeometry relative="1" as="geometry" />
        </mxCell>
        <mxCell id="PC0ZWLZjWZ4Z5OmDZpfl-266" value="NO" style="edgeLabel;html=1;align=center;verticalAlign=middle;resizable=0;points=[];" parent="PC0ZWLZjWZ4Z5OmDZpfl-265" vertex="1" connectable="0">
          <mxGeometry x="-0.52" y="-2" relative="1" as="geometry">
            <mxPoint as="offset" />
          </mxGeometry>
        </mxCell>
        <mxCell id="PC0ZWLZjWZ4Z5OmDZpfl-254" value="if press backButton" style="rhombus;whiteSpace=wrap;html=1;fontSize=16;" parent="wLT4fBUr7erfaKJgexdD-20" vertex="1">
          <mxGeometry x="92" y="182" width="116" height="114" as="geometry" />
        </mxCell>
        <mxCell id="PC0ZWLZjWZ4Z5OmDZpfl-267" style="edgeStyle=orthogonalEdgeStyle;rounded=0;orthogonalLoop=1;jettySize=auto;html=1;" parent="wLT4fBUr7erfaKJgexdD-20" source="PC0ZWLZjWZ4Z5OmDZpfl-264" target="PC0ZWLZjWZ4Z5OmDZpfl-250" edge="1">
          <mxGeometry relative="1" as="geometry">
            <mxPoint x="280" y="87" as="targetPoint" />
            <Array as="points">
              <mxPoint x="280" y="403" />
              <mxPoint x="280" y="92" />
            </Array>
          </mxGeometry>
        </mxCell>
        <mxCell id="PC0ZWLZjWZ4Z5OmDZpfl-268" value="NO" style="edgeLabel;html=1;align=center;verticalAlign=middle;resizable=0;points=[];" parent="PC0ZWLZjWZ4Z5OmDZpfl-267" vertex="1" connectable="0">
          <mxGeometry x="-0.8973" y="-3" relative="1" as="geometry">
            <mxPoint as="offset" />
          </mxGeometry>
        </mxCell>
        <mxCell id="PC0ZWLZjWZ4Z5OmDZpfl-270" value="" style="edgeStyle=orthogonalEdgeStyle;rounded=0;orthogonalLoop=1;jettySize=auto;html=1;" parent="wLT4fBUr7erfaKJgexdD-20" source="PC0ZWLZjWZ4Z5OmDZpfl-264" target="PC0ZWLZjWZ4Z5OmDZpfl-269" edge="1">
          <mxGeometry relative="1" as="geometry" />
        </mxCell>
        <mxCell id="PC0ZWLZjWZ4Z5OmDZpfl-271" value="YES" style="edgeLabel;html=1;align=center;verticalAlign=middle;resizable=0;points=[];" parent="PC0ZWLZjWZ4Z5OmDZpfl-270" vertex="1" connectable="0">
          <mxGeometry x="-0.5163" y="1" relative="1" as="geometry">
            <mxPoint as="offset" />
          </mxGeometry>
        </mxCell>
        <mxCell id="PC0ZWLZjWZ4Z5OmDZpfl-264" value="if press Subscribe" style="rhombus;whiteSpace=wrap;html=1;fontSize=16;" parent="wLT4fBUr7erfaKJgexdD-20" vertex="1">
          <mxGeometry x="92" y="346" width="116" height="114" as="geometry" />
        </mxCell>
        <mxCell id="PC0ZWLZjWZ4Z5OmDZpfl-269" value="write VIP USER in the file" style="whiteSpace=wrap;html=1;fontSize=16;" parent="wLT4fBUr7erfaKJgexdD-20" vertex="1">
          <mxGeometry x="89.5" y="523" width="121" height="56" as="geometry" />
        </mxCell>
        <mxCell id="PC0ZWLZjWZ4Z5OmDZpfl-86" value="MeView" style="swimlane;html=1;startSize=20;fontSize=16;" parent="wLT4fBUr7erfaKJgexdD-11" vertex="1">
          <mxGeometry x="630" y="20" width="796" height="1644" as="geometry" />
        </mxCell>
        <mxCell id="PC0ZWLZjWZ4Z5OmDZpfl-192" value="" style="edgeStyle=orthogonalEdgeStyle;rounded=0;orthogonalLoop=1;jettySize=auto;html=1;" parent="PC0ZWLZjWZ4Z5OmDZpfl-86" source="PC0ZWLZjWZ4Z5OmDZpfl-139" target="PC0ZWLZjWZ4Z5OmDZpfl-191" edge="1">
          <mxGeometry relative="1" as="geometry" />
        </mxCell>
        <mxCell id="PC0ZWLZjWZ4Z5OmDZpfl-139" value="MeView" style="whiteSpace=wrap;html=1;fontSize=16;" parent="PC0ZWLZjWZ4Z5OmDZpfl-86" vertex="1">
          <mxGeometry x="65.5" y="69" width="121" height="56" as="geometry" />
        </mxCell>
        <mxCell id="PC0ZWLZjWZ4Z5OmDZpfl-211" value="" style="edgeStyle=orthogonalEdgeStyle;rounded=0;orthogonalLoop=1;jettySize=auto;html=1;" parent="PC0ZWLZjWZ4Z5OmDZpfl-86" source="PC0ZWLZjWZ4Z5OmDZpfl-191" target="PC0ZWLZjWZ4Z5OmDZpfl-210" edge="1">
          <mxGeometry relative="1" as="geometry" />
        </mxCell>
        <mxCell id="PC0ZWLZjWZ4Z5OmDZpfl-212" value="NO" style="edgeLabel;html=1;align=center;verticalAlign=middle;resizable=0;points=[];" parent="PC0ZWLZjWZ4Z5OmDZpfl-211" vertex="1" connectable="0">
          <mxGeometry x="-0.4545" y="-1" relative="1" as="geometry">
            <mxPoint as="offset" />
          </mxGeometry>
        </mxCell>
        <mxCell id="PC0ZWLZjWZ4Z5OmDZpfl-191" value="if press homeLabel" style="rhombus;whiteSpace=wrap;html=1;fontSize=16;" parent="PC0ZWLZjWZ4Z5OmDZpfl-86" vertex="1">
          <mxGeometry x="68" y="166" width="116" height="114" as="geometry" />
        </mxCell>
        <mxCell id="PC0ZWLZjWZ4Z5OmDZpfl-217" value="" style="edgeStyle=orthogonalEdgeStyle;rounded=0;orthogonalLoop=1;jettySize=auto;html=1;" parent="PC0ZWLZjWZ4Z5OmDZpfl-86" source="PC0ZWLZjWZ4Z5OmDZpfl-210" target="PC0ZWLZjWZ4Z5OmDZpfl-216" edge="1">
          <mxGeometry relative="1" as="geometry" />
        </mxCell>
        <mxCell id="PC0ZWLZjWZ4Z5OmDZpfl-231" value="YES" style="edgeLabel;html=1;align=center;verticalAlign=middle;resizable=0;points=[];" parent="PC0ZWLZjWZ4Z5OmDZpfl-217" vertex="1" connectable="0">
          <mxGeometry x="-0.569" y="-3" relative="1" as="geometry">
            <mxPoint as="offset" />
          </mxGeometry>
        </mxCell>
        <mxCell id="PC0ZWLZjWZ4Z5OmDZpfl-219" value="" style="edgeStyle=orthogonalEdgeStyle;rounded=0;orthogonalLoop=1;jettySize=auto;html=1;" parent="PC0ZWLZjWZ4Z5OmDZpfl-86" source="PC0ZWLZjWZ4Z5OmDZpfl-210" target="PC0ZWLZjWZ4Z5OmDZpfl-218" edge="1">
          <mxGeometry relative="1" as="geometry" />
        </mxCell>
        <mxCell id="PC0ZWLZjWZ4Z5OmDZpfl-220" value="NO" style="edgeLabel;html=1;align=center;verticalAlign=middle;resizable=0;points=[];" parent="PC0ZWLZjWZ4Z5OmDZpfl-219" vertex="1" connectable="0">
          <mxGeometry x="-0.3125" relative="1" as="geometry">
            <mxPoint as="offset" />
          </mxGeometry>
        </mxCell>
        <mxCell id="PC0ZWLZjWZ4Z5OmDZpfl-210" value="if press notificationLabel" style="rhombus;whiteSpace=wrap;html=1;fontSize=16;" parent="PC0ZWLZjWZ4Z5OmDZpfl-86" vertex="1">
          <mxGeometry x="47" y="352" width="158" height="142" as="geometry" />
        </mxCell>
        <mxCell id="PC0ZWLZjWZ4Z5OmDZpfl-222" value="" style="edgeStyle=orthogonalEdgeStyle;rounded=0;orthogonalLoop=1;jettySize=auto;html=1;" parent="PC0ZWLZjWZ4Z5OmDZpfl-86" source="PC0ZWLZjWZ4Z5OmDZpfl-216" target="PC0ZWLZjWZ4Z5OmDZpfl-221" edge="1">
          <mxGeometry relative="1" as="geometry" />
        </mxCell>
        <mxCell id="PC0ZWLZjWZ4Z5OmDZpfl-216" value="Display notification" style="whiteSpace=wrap;html=1;fontSize=16;" parent="PC0ZWLZjWZ4Z5OmDZpfl-86" vertex="1">
          <mxGeometry x="300" y="395" width="121" height="56" as="geometry" />
        </mxCell>
        <mxCell id="TbsKuATNQ9Hsx6AKkANg-3" value="" style="edgeStyle=orthogonalEdgeStyle;rounded=0;orthogonalLoop=1;jettySize=auto;html=1;" edge="1" parent="PC0ZWLZjWZ4Z5OmDZpfl-86" source="PC0ZWLZjWZ4Z5OmDZpfl-218" target="TbsKuATNQ9Hsx6AKkANg-2">
          <mxGeometry relative="1" as="geometry" />
        </mxCell>
        <mxCell id="PC0ZWLZjWZ4Z5OmDZpfl-218" value="if press settingsLabel" style="rhombus;whiteSpace=wrap;html=1;fontSize=16;" parent="PC0ZWLZjWZ4Z5OmDZpfl-86" vertex="1">
          <mxGeometry x="58" y="558" width="136" height="142" as="geometry" />
        </mxCell>
        <mxCell id="PC0ZWLZjWZ4Z5OmDZpfl-226" style="edgeStyle=orthogonalEdgeStyle;rounded=0;orthogonalLoop=1;jettySize=auto;html=1;" parent="PC0ZWLZjWZ4Z5OmDZpfl-86" source="PC0ZWLZjWZ4Z5OmDZpfl-221" target="PC0ZWLZjWZ4Z5OmDZpfl-216" edge="1">
          <mxGeometry relative="1" as="geometry">
            <mxPoint x="432.5185185185185" y="417.33333333333326" as="targetPoint" />
            <Array as="points">
              <mxPoint x="463" y="560" />
              <mxPoint x="463" y="423" />
            </Array>
          </mxGeometry>
        </mxCell>
        <mxCell id="PC0ZWLZjWZ4Z5OmDZpfl-228" value="NO" style="edgeLabel;html=1;align=center;verticalAlign=middle;resizable=0;points=[];" parent="PC0ZWLZjWZ4Z5OmDZpfl-226" vertex="1" connectable="0">
          <mxGeometry x="-0.8472" y="-1" relative="1" as="geometry">
            <mxPoint as="offset" />
          </mxGeometry>
        </mxCell>
        <mxCell id="PC0ZWLZjWZ4Z5OmDZpfl-241" style="edgeStyle=orthogonalEdgeStyle;rounded=0;orthogonalLoop=1;jettySize=auto;html=1;" parent="PC0ZWLZjWZ4Z5OmDZpfl-86" source="PC0ZWLZjWZ4Z5OmDZpfl-221" target="PC0ZWLZjWZ4Z5OmDZpfl-139" edge="1">
          <mxGeometry relative="1" as="geometry">
            <mxPoint x="594" y="111.69230769230762" as="targetPoint" />
            <Array as="points">
              <mxPoint x="360" y="684" />
              <mxPoint x="594" y="684" />
              <mxPoint x="594" y="102" />
            </Array>
          </mxGeometry>
        </mxCell>
        <mxCell id="PC0ZWLZjWZ4Z5OmDZpfl-242" value="YES" style="edgeLabel;html=1;align=center;verticalAlign=middle;resizable=0;points=[];" parent="PC0ZWLZjWZ4Z5OmDZpfl-241" vertex="1" connectable="0">
          <mxGeometry x="-0.931" y="1" relative="1" as="geometry">
            <mxPoint y="-1" as="offset" />
          </mxGeometry>
        </mxCell>
        <mxCell id="PC0ZWLZjWZ4Z5OmDZpfl-221" value="if press backButton" style="rhombus;whiteSpace=wrap;html=1;fontSize=16;" parent="PC0ZWLZjWZ4Z5OmDZpfl-86" vertex="1">
          <mxGeometry x="302.5" y="503" width="116" height="114" as="geometry" />
        </mxCell>
        <mxCell id="TbsKuATNQ9Hsx6AKkANg-2" value="Display&lt;br&gt;backButton&lt;br&gt;optionButton&lt;br&gt;logoutButton" style="whiteSpace=wrap;html=1;" vertex="1" parent="PC0ZWLZjWZ4Z5OmDZpfl-86">
          <mxGeometry x="65.5" y="760" width="120.5" height="74" as="geometry" />
        </mxCell>
        <mxCell id="PC0ZWLZjWZ4Z5OmDZpfl-90" value="BorrowView" style="swimlane;html=1;startSize=20;fontSize=16;" parent="wLT4fBUr7erfaKJgexdD-11" vertex="1">
          <mxGeometry x="1426" y="20" width="405" height="1644" as="geometry" />
        </mxCell>
        <mxCell id="PC0ZWLZjWZ4Z5OmDZpfl-167" value="" style="edgeStyle=none;curved=1;rounded=0;orthogonalLoop=1;jettySize=auto;html=1;fontSize=12;startSize=8;endSize=8;" parent="PC0ZWLZjWZ4Z5OmDZpfl-90" source="PC0ZWLZjWZ4Z5OmDZpfl-107" target="PC0ZWLZjWZ4Z5OmDZpfl-166" edge="1">
          <mxGeometry relative="1" as="geometry" />
        </mxCell>
        <mxCell id="PC0ZWLZjWZ4Z5OmDZpfl-107" value="BorrowView" style="whiteSpace=wrap;html=1;fontSize=16;" parent="PC0ZWLZjWZ4Z5OmDZpfl-90" vertex="1">
          <mxGeometry x="121" y="79" width="121" height="56" as="geometry" />
        </mxCell>
        <mxCell id="PC0ZWLZjWZ4Z5OmDZpfl-148" value="" style="edgeStyle=none;curved=1;rounded=0;orthogonalLoop=1;jettySize=auto;html=1;fontSize=12;startSize=8;endSize=8;" parent="PC0ZWLZjWZ4Z5OmDZpfl-90" source="PC0ZWLZjWZ4Z5OmDZpfl-111" target="PC0ZWLZjWZ4Z5OmDZpfl-147" edge="1">
          <mxGeometry relative="1" as="geometry" />
        </mxCell>
        <mxCell id="PC0ZWLZjWZ4Z5OmDZpfl-111" value="input&lt;br&gt;loan amount&lt;br&gt;years&lt;br&gt;full name&lt;br&gt;number&lt;br&gt;purpose of loan&lt;br&gt;profession&lt;br&gt;monthly income&lt;br&gt;&lt;br&gt;" style="shape=parallelogram;perimeter=parallelogramPerimeter;whiteSpace=wrap;html=1;fixedSize=1;fontSize=16;" parent="PC0ZWLZjWZ4Z5OmDZpfl-90" vertex="1">
          <mxGeometry x="108" y="340" width="151.5" height="185" as="geometry" />
        </mxCell>
        <mxCell id="PC0ZWLZjWZ4Z5OmDZpfl-151" value="" style="edgeStyle=none;curved=1;rounded=0;orthogonalLoop=1;jettySize=auto;html=1;fontSize=12;startSize=8;endSize=8;" parent="PC0ZWLZjWZ4Z5OmDZpfl-90" source="PC0ZWLZjWZ4Z5OmDZpfl-147" target="PC0ZWLZjWZ4Z5OmDZpfl-150" edge="1">
          <mxGeometry relative="1" as="geometry" />
        </mxCell>
        <mxCell id="PC0ZWLZjWZ4Z5OmDZpfl-147" value="submit" style="whiteSpace=wrap;html=1;fontSize=16;" parent="PC0ZWLZjWZ4Z5OmDZpfl-90" vertex="1">
          <mxGeometry x="123.25" y="561" width="120" height="60" as="geometry" />
        </mxCell>
        <mxCell id="PC0ZWLZjWZ4Z5OmDZpfl-153" value="" style="edgeStyle=none;curved=1;rounded=0;orthogonalLoop=1;jettySize=auto;html=1;fontSize=12;startSize=8;endSize=8;" parent="PC0ZWLZjWZ4Z5OmDZpfl-90" source="PC0ZWLZjWZ4Z5OmDZpfl-150" target="PC0ZWLZjWZ4Z5OmDZpfl-152" edge="1">
          <mxGeometry relative="1" as="geometry" />
        </mxCell>
        <mxCell id="PC0ZWLZjWZ4Z5OmDZpfl-155" value="YES" style="edgeLabel;html=1;align=center;verticalAlign=middle;resizable=0;points=[];fontSize=16;" parent="PC0ZWLZjWZ4Z5OmDZpfl-153" vertex="1" connectable="0">
          <mxGeometry x="-0.2679" y="1" relative="1" as="geometry">
            <mxPoint as="offset" />
          </mxGeometry>
        </mxCell>
        <mxCell id="PC0ZWLZjWZ4Z5OmDZpfl-150" value="is valid?" style="rhombus;whiteSpace=wrap;html=1;fontSize=16;" parent="PC0ZWLZjWZ4Z5OmDZpfl-90" vertex="1">
          <mxGeometry x="137.25" y="664" width="93" height="90" as="geometry" />
        </mxCell>
        <mxCell id="PC0ZWLZjWZ4Z5OmDZpfl-152" value="store the input" style="whiteSpace=wrap;html=1;fontSize=16;" parent="PC0ZWLZjWZ4Z5OmDZpfl-90" vertex="1">
          <mxGeometry x="127.25" y="834" width="113" height="63" as="geometry" />
        </mxCell>
        <mxCell id="PC0ZWLZjWZ4Z5OmDZpfl-160" value="" style="edgeStyle=segmentEdgeStyle;endArrow=classic;html=1;curved=0;rounded=0;endSize=8;startSize=8;sourcePerimeterSpacing=0;targetPerimeterSpacing=0;fontSize=12;entryX=1;entryY=0.5;entryDx=0;entryDy=0;exitX=1;exitY=0.5;exitDx=0;exitDy=0;" parent="PC0ZWLZjWZ4Z5OmDZpfl-90" source="PC0ZWLZjWZ4Z5OmDZpfl-150" target="PC0ZWLZjWZ4Z5OmDZpfl-107" edge="1">
          <mxGeometry width="140" relative="1" as="geometry">
            <mxPoint x="231" y="622" as="sourcePoint" />
            <mxPoint x="322" y="387" as="targetPoint" />
            <Array as="points">
              <mxPoint x="383" y="709" />
              <mxPoint x="383" y="107" />
            </Array>
          </mxGeometry>
        </mxCell>
        <mxCell id="PC0ZWLZjWZ4Z5OmDZpfl-161" value="NO" style="edgeLabel;html=1;align=center;verticalAlign=middle;resizable=0;points=[];fontSize=16;" parent="PC0ZWLZjWZ4Z5OmDZpfl-160" vertex="1" connectable="0">
          <mxGeometry x="-0.9196" y="-1" relative="1" as="geometry">
            <mxPoint as="offset" />
          </mxGeometry>
        </mxCell>
        <mxCell id="PC0ZWLZjWZ4Z5OmDZpfl-168" value="" style="edgeStyle=none;curved=1;rounded=0;orthogonalLoop=1;jettySize=auto;html=1;fontSize=12;startSize=8;endSize=8;" parent="PC0ZWLZjWZ4Z5OmDZpfl-90" source="PC0ZWLZjWZ4Z5OmDZpfl-166" target="PC0ZWLZjWZ4Z5OmDZpfl-111" edge="1">
          <mxGeometry relative="1" as="geometry" />
        </mxCell>
        <mxCell id="PC0ZWLZjWZ4Z5OmDZpfl-169" value="NO" style="edgeLabel;html=1;align=center;verticalAlign=middle;resizable=0;points=[];fontSize=16;" parent="PC0ZWLZjWZ4Z5OmDZpfl-168" vertex="1" connectable="0">
          <mxGeometry x="-0.3525" y="2" relative="1" as="geometry">
            <mxPoint as="offset" />
          </mxGeometry>
        </mxCell>
        <mxCell id="PC0ZWLZjWZ4Z5OmDZpfl-166" value="if press backButton" style="rhombus;whiteSpace=wrap;html=1;fontSize=16;" parent="PC0ZWLZjWZ4Z5OmDZpfl-90" vertex="1">
          <mxGeometry x="123.25" y="172" width="116" height="114" as="geometry" />
        </mxCell>
        <mxCell id="PC0ZWLZjWZ4Z5OmDZpfl-94" value="DashboardView" style="swimlane;html=1;startSize=20;fontSize=16;" parent="wLT4fBUr7erfaKJgexdD-11" vertex="1">
          <mxGeometry x="1831" y="20" width="384" height="1644" as="geometry" />
        </mxCell>
        <mxCell id="PC0ZWLZjWZ4Z5OmDZpfl-105" value="" style="edgeStyle=none;curved=1;rounded=0;orthogonalLoop=1;jettySize=auto;html=1;fontSize=12;startSize=8;endSize=8;" parent="PC0ZWLZjWZ4Z5OmDZpfl-94" source="wLT4fBUr7erfaKJgexdD-16" target="PC0ZWLZjWZ4Z5OmDZpfl-104" edge="1">
          <mxGeometry relative="1" as="geometry" />
        </mxCell>
        <mxCell id="wLT4fBUr7erfaKJgexdD-16" value="DashboardView" style="whiteSpace=wrap;html=1;fontSize=16;" parent="PC0ZWLZjWZ4Z5OmDZpfl-94" vertex="1">
          <mxGeometry x="146" y="67" width="120" height="60" as="geometry" />
        </mxCell>
        <mxCell id="PC0ZWLZjWZ4Z5OmDZpfl-115" value="" style="edgeStyle=none;curved=1;rounded=0;orthogonalLoop=1;jettySize=auto;html=1;fontSize=12;startSize=8;endSize=8;" parent="PC0ZWLZjWZ4Z5OmDZpfl-94" source="PC0ZWLZjWZ4Z5OmDZpfl-104" target="PC0ZWLZjWZ4Z5OmDZpfl-114" edge="1">
          <mxGeometry relative="1" as="geometry" />
        </mxCell>
        <mxCell id="PC0ZWLZjWZ4Z5OmDZpfl-116" value="NO" style="edgeLabel;html=1;align=center;verticalAlign=middle;resizable=0;points=[];fontSize=16;" parent="PC0ZWLZjWZ4Z5OmDZpfl-115" vertex="1" connectable="0">
          <mxGeometry x="-0.2708" y="1" relative="1" as="geometry">
            <mxPoint as="offset" />
          </mxGeometry>
        </mxCell>
        <mxCell id="PC0ZWLZjWZ4Z5OmDZpfl-104" value="if press borrowButton" style="rhombus;whiteSpace=wrap;html=1;fontSize=16;" parent="PC0ZWLZjWZ4Z5OmDZpfl-94" vertex="1">
          <mxGeometry x="140.5" y="184" width="131" height="127" as="geometry" />
        </mxCell>
        <mxCell id="PC0ZWLZjWZ4Z5OmDZpfl-244" value="" style="edgeStyle=orthogonalEdgeStyle;rounded=0;orthogonalLoop=1;jettySize=auto;html=1;" parent="PC0ZWLZjWZ4Z5OmDZpfl-94" source="PC0ZWLZjWZ4Z5OmDZpfl-114" target="PC0ZWLZjWZ4Z5OmDZpfl-243" edge="1">
          <mxGeometry relative="1" as="geometry" />
        </mxCell>
        <mxCell id="PC0ZWLZjWZ4Z5OmDZpfl-245" value="NO" style="edgeLabel;html=1;align=center;verticalAlign=middle;resizable=0;points=[];" parent="PC0ZWLZjWZ4Z5OmDZpfl-244" vertex="1" connectable="0">
          <mxGeometry x="-0.323" y="-1" relative="1" as="geometry">
            <mxPoint y="-1" as="offset" />
          </mxGeometry>
        </mxCell>
        <mxCell id="PC0ZWLZjWZ4Z5OmDZpfl-114" value="if press meLabel" style="rhombus;whiteSpace=wrap;html=1;fontSize=16;" parent="PC0ZWLZjWZ4Z5OmDZpfl-94" vertex="1">
          <mxGeometry x="157.5" y="379" width="97" height="104.5" as="geometry" />
        </mxCell>
        <mxCell id="PC0ZWLZjWZ4Z5OmDZpfl-136" value="" style="edgeStyle=segmentEdgeStyle;endArrow=classic;html=1;curved=0;rounded=0;endSize=8;startSize=8;sourcePerimeterSpacing=0;targetPerimeterSpacing=0;fontSize=12;exitX=0;exitY=0.5;exitDx=0;exitDy=0;" parent="PC0ZWLZjWZ4Z5OmDZpfl-94" target="PC0ZWLZjWZ4Z5OmDZpfl-139" edge="1">
          <mxGeometry width="140" relative="1" as="geometry">
            <mxPoint x="157.5" y="432" as="sourcePoint" />
            <mxPoint x="-431" y="103" as="targetPoint" />
            <Array as="points">
              <mxPoint x="40" y="432" />
              <mxPoint x="40" y="545" />
              <mxPoint x="-384" y="545" />
              <mxPoint x="-384" y="103" />
            </Array>
          </mxGeometry>
        </mxCell>
        <mxCell id="PC0ZWLZjWZ4Z5OmDZpfl-149" style="edgeStyle=none;curved=1;rounded=0;orthogonalLoop=1;jettySize=auto;html=1;exitX=1;exitY=0.5;exitDx=0;exitDy=0;fontSize=12;startSize=8;endSize=8;" parent="PC0ZWLZjWZ4Z5OmDZpfl-94" source="wLT4fBUr7erfaKJgexdD-16" target="wLT4fBUr7erfaKJgexdD-16" edge="1">
          <mxGeometry relative="1" as="geometry" />
        </mxCell>
        <mxCell id="PC0ZWLZjWZ4Z5OmDZpfl-181" value="YES" style="edgeLabel;html=1;align=center;verticalAlign=middle;resizable=0;points=[];fontSize=16;" parent="PC0ZWLZjWZ4Z5OmDZpfl-94" vertex="1" connectable="0">
          <mxGeometry x="114.99997082584423" y="431.25280481001164" as="geometry" />
        </mxCell>
        <mxCell id="PC0ZWLZjWZ4Z5OmDZpfl-273" style="edgeStyle=orthogonalEdgeStyle;rounded=0;orthogonalLoop=1;jettySize=auto;html=1;entryX=1;entryY=0.5;entryDx=0;entryDy=0;" parent="PC0ZWLZjWZ4Z5OmDZpfl-94" source="PC0ZWLZjWZ4Z5OmDZpfl-243" target="wLT4fBUr7erfaKJgexdD-16" edge="1">
          <mxGeometry relative="1" as="geometry">
            <mxPoint x="328" y="97" as="targetPoint" />
            <Array as="points">
              <mxPoint x="346" y="641" />
              <mxPoint x="346" y="97" />
            </Array>
          </mxGeometry>
        </mxCell>
        <mxCell id="PC0ZWLZjWZ4Z5OmDZpfl-274" value="NO" style="edgeLabel;html=1;align=center;verticalAlign=middle;resizable=0;points=[];" parent="PC0ZWLZjWZ4Z5OmDZpfl-273" vertex="1" connectable="0">
          <mxGeometry x="-0.9351" y="1" relative="1" as="geometry">
            <mxPoint as="offset" />
          </mxGeometry>
        </mxCell>
        <mxCell id="PC0ZWLZjWZ4Z5OmDZpfl-243" value="if press PremiumView&amp;nbsp;" style="rhombus;whiteSpace=wrap;html=1;fontSize=16;" parent="PC0ZWLZjWZ4Z5OmDZpfl-94" vertex="1">
          <mxGeometry x="139.75" y="566" width="132.5" height="150" as="geometry" />
        </mxCell>
        <mxCell id="PC0ZWLZjWZ4Z5OmDZpfl-69" style="edgeStyle=none;curved=1;rounded=0;orthogonalLoop=1;jettySize=auto;html=1;fontSize=12;startSize=8;endSize=8;" parent="wLT4fBUr7erfaKJgexdD-11" source="wLT4fBUr7erfaKJgexdD-35" target="wLT4fBUr7erfaKJgexdD-16" edge="1">
          <mxGeometry relative="1" as="geometry" />
        </mxCell>
        <mxCell id="PC0ZWLZjWZ4Z5OmDZpfl-102" value="DashboardController" style="swimlane;html=1;startSize=20;fontSize=16;" parent="wLT4fBUr7erfaKJgexdD-11" vertex="1">
          <mxGeometry x="2215" y="20" width="330" height="1644" as="geometry" />
        </mxCell>
        <mxCell id="wLT4fBUr7erfaKJgexdD-35" value="Display DashboardView" style="whiteSpace=wrap;html=1;fontSize=16;" parent="PC0ZWLZjWZ4Z5OmDZpfl-102" vertex="1">
          <mxGeometry x="105" y="68" width="120" height="60" as="geometry" />
        </mxCell>
        <mxCell id="PC0ZWLZjWZ4Z5OmDZpfl-122" value="" style="edgeStyle=segmentEdgeStyle;endArrow=classic;html=1;curved=0;rounded=0;endSize=8;startSize=8;sourcePerimeterSpacing=0;targetPerimeterSpacing=0;fontSize=12;exitX=0;exitY=0.5;exitDx=0;exitDy=0;" parent="wLT4fBUr7erfaKJgexdD-11" source="PC0ZWLZjWZ4Z5OmDZpfl-104" target="PC0ZWLZjWZ4Z5OmDZpfl-107" edge="1">
          <mxGeometry width="140" relative="1" as="geometry">
            <mxPoint x="1285" y="111" as="sourcePoint" />
            <mxPoint x="1425" y="171" as="targetPoint" />
            <Array as="points">
              <mxPoint x="1886" y="268" />
              <mxPoint x="1886" y="127" />
            </Array>
          </mxGeometry>
        </mxCell>
        <mxCell id="PC0ZWLZjWZ4Z5OmDZpfl-125" value="YES" style="edgeLabel;html=1;align=center;verticalAlign=middle;resizable=0;points=[];fontSize=16;" parent="PC0ZWLZjWZ4Z5OmDZpfl-122" vertex="1" connectable="0">
          <mxGeometry x="-0.8463" y="3" relative="1" as="geometry">
            <mxPoint as="offset" />
          </mxGeometry>
        </mxCell>
        <mxCell id="PC0ZWLZjWZ4Z5OmDZpfl-170" value="" style="edgeStyle=segmentEdgeStyle;endArrow=classic;html=1;curved=0;rounded=0;endSize=8;startSize=8;sourcePerimeterSpacing=0;targetPerimeterSpacing=0;fontSize=12;" parent="wLT4fBUr7erfaKJgexdD-11" source="PC0ZWLZjWZ4Z5OmDZpfl-166" target="wLT4fBUr7erfaKJgexdD-16" edge="1">
          <mxGeometry width="140" relative="1" as="geometry">
            <mxPoint x="1265" y="246" as="sourcePoint" />
            <mxPoint x="1398" y="105" as="targetPoint" />
            <Array as="points">
              <mxPoint x="1480" y="249" />
              <mxPoint x="1480" y="76" />
              <mxPoint x="2037" y="76" />
            </Array>
          </mxGeometry>
        </mxCell>
        <mxCell id="PC0ZWLZjWZ4Z5OmDZpfl-171" value="YES" style="edgeLabel;html=1;align=center;verticalAlign=middle;resizable=0;points=[];fontSize=16;" parent="PC0ZWLZjWZ4Z5OmDZpfl-170" vertex="1" connectable="0">
          <mxGeometry x="-0.893" y="-3" relative="1" as="geometry">
            <mxPoint as="offset" />
          </mxGeometry>
        </mxCell>
        <mxCell id="PC0ZWLZjWZ4Z5OmDZpfl-117" value="" style="edgeStyle=segmentEdgeStyle;endArrow=classic;html=1;curved=0;rounded=0;endSize=8;startSize=8;sourcePerimeterSpacing=0;targetPerimeterSpacing=0;fontSize=12;entryX=0.507;entryY=-0.02;entryDx=0;entryDy=0;entryPerimeter=0;" parent="wLT4fBUr7erfaKJgexdD-11" source="PC0ZWLZjWZ4Z5OmDZpfl-191" target="wLT4fBUr7erfaKJgexdD-16" edge="1">
          <mxGeometry width="140" relative="1" as="geometry">
            <mxPoint x="902" y="245" as="sourcePoint" />
            <mxPoint x="1571" y="75" as="targetPoint" />
            <Array as="points">
              <mxPoint x="879" y="243" />
              <mxPoint x="879" y="76" />
              <mxPoint x="1572" y="76" />
              <mxPoint x="1572" y="75" />
              <mxPoint x="2038" y="75" />
            </Array>
          </mxGeometry>
        </mxCell>
        <mxCell id="PC0ZWLZjWZ4Z5OmDZpfl-201" value="YES" style="edgeLabel;html=1;align=center;verticalAlign=middle;resizable=0;points=[];" parent="PC0ZWLZjWZ4Z5OmDZpfl-117" vertex="1" connectable="0">
          <mxGeometry x="-0.951" y="-2" relative="1" as="geometry">
            <mxPoint as="offset" />
          </mxGeometry>
        </mxCell>
        <mxCell id="PC0ZWLZjWZ4Z5OmDZpfl-246" style="edgeStyle=orthogonalEdgeStyle;rounded=0;orthogonalLoop=1;jettySize=auto;html=1;" parent="wLT4fBUr7erfaKJgexdD-11" source="PC0ZWLZjWZ4Z5OmDZpfl-243" target="PC0ZWLZjWZ4Z5OmDZpfl-250" edge="1">
          <mxGeometry relative="1" as="geometry">
            <mxPoint x="615" y="245" as="targetPoint" />
            <mxPoint x="1872" y="650" as="sourcePoint" />
            <Array as="points">
              <mxPoint x="876" y="661" />
              <mxPoint x="876" y="523" />
              <mxPoint x="669" y="523" />
              <mxPoint x="669" y="111" />
            </Array>
          </mxGeometry>
        </mxCell>
        <mxCell id="PC0ZWLZjWZ4Z5OmDZpfl-272" value="YES" style="edgeLabel;html=1;align=center;verticalAlign=middle;resizable=0;points=[];" parent="PC0ZWLZjWZ4Z5OmDZpfl-246" vertex="1" connectable="0">
          <mxGeometry x="-0.9741" y="4" relative="1" as="geometry">
            <mxPoint as="offset" />
          </mxGeometry>
        </mxCell>
        <mxCell id="wLT4fBUr7erfaKJgexdD-21" value="register" style="swimlane;html=1;childLayout=stackLayout;startSize=20;rounded=0;shadow=0;labelBackgroundColor=none;strokeWidth=1;fontFamily=Verdana;fontSize=8;align=center;" parent="1" vertex="1">
          <mxGeometry x="783" y="3" width="686" height="750" as="geometry">
            <mxRectangle x="20" y="20" width="55" height="22" as="alternateBounds" />
          </mxGeometry>
        </mxCell>
        <mxCell id="wLT4fBUr7erfaKJgexdD-22" value="RegisterController" style="swimlane;html=1;startSize=20;fontSize=16;" parent="wLT4fBUr7erfaKJgexdD-21" vertex="1">
          <mxGeometry y="20" width="330" height="730" as="geometry" />
        </mxCell>
        <mxCell id="wLT4fBUr7erfaKJgexdD-87" value="Display RegisterView" style="whiteSpace=wrap;html=1;fontSize=16;" parent="wLT4fBUr7erfaKJgexdD-22" vertex="1">
          <mxGeometry x="105" y="52" width="120" height="60" as="geometry" />
        </mxCell>
        <mxCell id="PC0ZWLZjWZ4Z5OmDZpfl-3" value="check if already exist" style="whiteSpace=wrap;html=1;fontSize=16;" parent="wLT4fBUr7erfaKJgexdD-22" vertex="1">
          <mxGeometry x="105" y="335" width="120" height="60" as="geometry" />
        </mxCell>
        <mxCell id="PC0ZWLZjWZ4Z5OmDZpfl-21" value="prompt already exist" style="whiteSpace=wrap;html=1;fontSize=16;" parent="wLT4fBUr7erfaKJgexdD-22" vertex="1">
          <mxGeometry x="105" y="482" width="120" height="60" as="geometry" />
        </mxCell>
        <mxCell id="wLT4fBUr7erfaKJgexdD-30" value="RegisterView" style="swimlane;html=1;startSize=20;fontSize=16;" parent="wLT4fBUr7erfaKJgexdD-21" vertex="1">
          <mxGeometry x="330" y="20" width="356" height="730" as="geometry" />
        </mxCell>
        <mxCell id="wLT4fBUr7erfaKJgexdD-93" style="edgeStyle=none;curved=1;rounded=0;orthogonalLoop=1;jettySize=auto;html=1;fontSize=12;startSize=8;endSize=8;" parent="wLT4fBUr7erfaKJgexdD-30" source="wLT4fBUr7erfaKJgexdD-90" target="wLT4fBUr7erfaKJgexdD-92" edge="1">
          <mxGeometry relative="1" as="geometry" />
        </mxCell>
        <mxCell id="wLT4fBUr7erfaKJgexdD-90" value="RegisterView" style="whiteSpace=wrap;html=1;fontSize=16;" parent="wLT4fBUr7erfaKJgexdD-30" vertex="1">
          <mxGeometry x="118" y="52" width="120" height="60" as="geometry" />
        </mxCell>
        <mxCell id="PC0ZWLZjWZ4Z5OmDZpfl-2" value="" style="edgeStyle=none;curved=1;rounded=0;orthogonalLoop=1;jettySize=auto;html=1;fontSize=12;startSize=8;endSize=8;" parent="wLT4fBUr7erfaKJgexdD-30" source="wLT4fBUr7erfaKJgexdD-92" target="PC0ZWLZjWZ4Z5OmDZpfl-1" edge="1">
          <mxGeometry relative="1" as="geometry" />
        </mxCell>
        <mxCell id="wLT4fBUr7erfaKJgexdD-92" value="input &lt;br&gt;name&lt;br&gt;username&lt;br&gt;password" style="shape=parallelogram;perimeter=parallelogramPerimeter;whiteSpace=wrap;html=1;fixedSize=1;fontSize=16;" parent="wLT4fBUr7erfaKJgexdD-30" vertex="1">
          <mxGeometry x="107" y="175" width="142" height="86" as="geometry" />
        </mxCell>
        <mxCell id="PC0ZWLZjWZ4Z5OmDZpfl-1" value="check if already exist" style="whiteSpace=wrap;html=1;fontSize=16;" parent="wLT4fBUr7erfaKJgexdD-30" vertex="1">
          <mxGeometry x="118" y="335" width="120" height="60" as="geometry" />
        </mxCell>
        <mxCell id="PC0ZWLZjWZ4Z5OmDZpfl-24" style="edgeStyle=none;curved=1;rounded=0;orthogonalLoop=1;jettySize=auto;html=1;entryX=1;entryY=0.5;entryDx=0;entryDy=0;fontSize=12;startSize=8;endSize=8;exitX=1;exitY=0.5;exitDx=0;exitDy=0;" parent="wLT4fBUr7erfaKJgexdD-30" source="PC0ZWLZjWZ4Z5OmDZpfl-22" target="wLT4fBUr7erfaKJgexdD-90" edge="1">
          <mxGeometry relative="1" as="geometry">
            <Array as="points">
              <mxPoint x="347" y="412" />
            </Array>
          </mxGeometry>
        </mxCell>
        <mxCell id="PC0ZWLZjWZ4Z5OmDZpfl-22" value="prompt already exist" style="whiteSpace=wrap;html=1;fontSize=16;" parent="wLT4fBUr7erfaKJgexdD-30" vertex="1">
          <mxGeometry x="118" y="482" width="120" height="60" as="geometry" />
        </mxCell>
        <mxCell id="wLT4fBUr7erfaKJgexdD-91" style="edgeStyle=none;curved=1;rounded=0;orthogonalLoop=1;jettySize=auto;html=1;fontSize=12;startSize=8;endSize=8;" parent="wLT4fBUr7erfaKJgexdD-21" source="wLT4fBUr7erfaKJgexdD-87" target="wLT4fBUr7erfaKJgexdD-90" edge="1">
          <mxGeometry relative="1" as="geometry" />
        </mxCell>
        <mxCell id="PC0ZWLZjWZ4Z5OmDZpfl-4" value="" style="edgeStyle=none;curved=1;rounded=0;orthogonalLoop=1;jettySize=auto;html=1;fontSize=12;startSize=8;endSize=8;" parent="wLT4fBUr7erfaKJgexdD-21" source="PC0ZWLZjWZ4Z5OmDZpfl-1" target="PC0ZWLZjWZ4Z5OmDZpfl-3" edge="1">
          <mxGeometry relative="1" as="geometry" />
        </mxCell>
        <mxCell id="PC0ZWLZjWZ4Z5OmDZpfl-23" style="edgeStyle=none;curved=1;rounded=0;orthogonalLoop=1;jettySize=auto;html=1;fontSize=12;startSize=8;endSize=8;" parent="wLT4fBUr7erfaKJgexdD-21" source="PC0ZWLZjWZ4Z5OmDZpfl-21" target="PC0ZWLZjWZ4Z5OmDZpfl-22" edge="1">
          <mxGeometry relative="1" as="geometry" />
        </mxCell>
        <mxCell id="wLT4fBUr7erfaKJgexdD-55" value="user" style="swimlane;html=1;childLayout=stackLayout;startSize=20;rounded=0;shadow=0;labelBackgroundColor=none;strokeWidth=1;fontFamily=Verdana;fontSize=8;align=center;" parent="1" vertex="1">
          <mxGeometry x="13" y="1038" width="782" height="972" as="geometry">
            <mxRectangle x="20" y="20" width="55" height="22" as="alternateBounds" />
          </mxGeometry>
        </mxCell>
        <mxCell id="wLT4fBUr7erfaKJgexdD-56" value="UserModel" style="swimlane;html=1;startSize=20;fontSize=16;" parent="wLT4fBUr7erfaKJgexdD-55" vertex="1">
          <mxGeometry y="20" width="459" height="952" as="geometry" />
        </mxCell>
        <mxCell id="PC0ZWLZjWZ4Z5OmDZpfl-10" value="" style="edgeStyle=none;curved=1;rounded=0;orthogonalLoop=1;jettySize=auto;html=1;fontSize=12;startSize=8;endSize=8;" parent="wLT4fBUr7erfaKJgexdD-56" source="PC0ZWLZjWZ4Z5OmDZpfl-7" target="PC0ZWLZjWZ4Z5OmDZpfl-9" edge="1">
          <mxGeometry relative="1" as="geometry" />
        </mxCell>
        <mxCell id="PC0ZWLZjWZ4Z5OmDZpfl-7" value="check if already exist" style="whiteSpace=wrap;html=1;fontSize=16;" parent="wLT4fBUr7erfaKJgexdD-56" vertex="1">
          <mxGeometry x="99" y="63" width="120" height="60" as="geometry" />
        </mxCell>
        <mxCell id="PC0ZWLZjWZ4Z5OmDZpfl-65" style="edgeStyle=none;curved=1;rounded=0;orthogonalLoop=1;jettySize=auto;html=1;fontSize=12;startSize=8;endSize=8;" parent="wLT4fBUr7erfaKJgexdD-56" source="PC0ZWLZjWZ4Z5OmDZpfl-9" target="PC0ZWLZjWZ4Z5OmDZpfl-62" edge="1">
          <mxGeometry relative="1" as="geometry" />
        </mxCell>
        <mxCell id="PC0ZWLZjWZ4Z5OmDZpfl-66" value="NO" style="edgeLabel;html=1;align=center;verticalAlign=middle;resizable=0;points=[];fontSize=16;" parent="PC0ZWLZjWZ4Z5OmDZpfl-65" vertex="1" connectable="0">
          <mxGeometry x="-0.2654" y="2" relative="1" as="geometry">
            <mxPoint as="offset" />
          </mxGeometry>
        </mxCell>
        <mxCell id="PC0ZWLZjWZ4Z5OmDZpfl-9" value="is exist?" style="rhombus;whiteSpace=wrap;html=1;fontSize=16;" parent="wLT4fBUr7erfaKJgexdD-56" vertex="1">
          <mxGeometry x="119" y="176" width="80" height="80" as="geometry" />
        </mxCell>
        <mxCell id="PC0ZWLZjWZ4Z5OmDZpfl-41" value="" style="edgeStyle=none;curved=1;rounded=0;orthogonalLoop=1;jettySize=auto;html=1;fontSize=12;startSize=8;endSize=8;" parent="wLT4fBUr7erfaKJgexdD-56" source="PC0ZWLZjWZ4Z5OmDZpfl-38" target="PC0ZWLZjWZ4Z5OmDZpfl-40" edge="1">
          <mxGeometry relative="1" as="geometry" />
        </mxCell>
        <mxCell id="PC0ZWLZjWZ4Z5OmDZpfl-38" value="Check if registered" style="whiteSpace=wrap;html=1;fontSize=16;" parent="wLT4fBUr7erfaKJgexdD-56" vertex="1">
          <mxGeometry x="99" y="431" width="120" height="60" as="geometry" />
        </mxCell>
        <mxCell id="PC0ZWLZjWZ4Z5OmDZpfl-40" value="is registered?" style="rhombus;whiteSpace=wrap;html=1;fontSize=16;" parent="wLT4fBUr7erfaKJgexdD-56" vertex="1">
          <mxGeometry x="99" y="550" width="120" height="120" as="geometry" />
        </mxCell>
        <mxCell id="PC0ZWLZjWZ4Z5OmDZpfl-62" value="store input" style="whiteSpace=wrap;html=1;fontSize=16;" parent="wLT4fBUr7erfaKJgexdD-56" vertex="1">
          <mxGeometry x="99" y="328" width="120" height="60" as="geometry" />
        </mxCell>
        <mxCell id="PC0ZWLZjWZ4Z5OmDZpfl-8" style="edgeStyle=none;curved=1;rounded=0;orthogonalLoop=1;jettySize=auto;html=1;fontSize=12;startSize=8;endSize=8;" parent="wLT4fBUr7erfaKJgexdD-55" source="PC0ZWLZjWZ4Z5OmDZpfl-6" target="PC0ZWLZjWZ4Z5OmDZpfl-7" edge="1">
          <mxGeometry relative="1" as="geometry" />
        </mxCell>
        <mxCell id="PC0ZWLZjWZ4Z5OmDZpfl-13" value="" style="edgeStyle=none;curved=1;rounded=0;orthogonalLoop=1;jettySize=auto;html=1;fontSize=12;startSize=8;endSize=8;" parent="wLT4fBUr7erfaKJgexdD-55" source="PC0ZWLZjWZ4Z5OmDZpfl-9" target="PC0ZWLZjWZ4Z5OmDZpfl-12" edge="1">
          <mxGeometry relative="1" as="geometry" />
        </mxCell>
        <mxCell id="PC0ZWLZjWZ4Z5OmDZpfl-14" value="YES" style="edgeLabel;html=1;align=center;verticalAlign=middle;resizable=0;points=[];fontSize=16;" parent="PC0ZWLZjWZ4Z5OmDZpfl-13" vertex="1" connectable="0">
          <mxGeometry x="-0.8233" y="-2" relative="1" as="geometry">
            <mxPoint as="offset" />
          </mxGeometry>
        </mxCell>
        <mxCell id="PC0ZWLZjWZ4Z5OmDZpfl-39" value="" style="edgeStyle=none;curved=1;rounded=0;orthogonalLoop=1;jettySize=auto;html=1;fontSize=12;startSize=8;endSize=8;" parent="wLT4fBUr7erfaKJgexdD-55" source="PC0ZWLZjWZ4Z5OmDZpfl-37" target="PC0ZWLZjWZ4Z5OmDZpfl-38" edge="1">
          <mxGeometry relative="1" as="geometry" />
        </mxCell>
        <mxCell id="PC0ZWLZjWZ4Z5OmDZpfl-43" value="" style="edgeStyle=none;curved=1;rounded=0;orthogonalLoop=1;jettySize=auto;html=1;fontSize=12;startSize=8;endSize=8;" parent="wLT4fBUr7erfaKJgexdD-55" source="PC0ZWLZjWZ4Z5OmDZpfl-40" target="PC0ZWLZjWZ4Z5OmDZpfl-42" edge="1">
          <mxGeometry relative="1" as="geometry" />
        </mxCell>
        <mxCell id="PC0ZWLZjWZ4Z5OmDZpfl-44" value="NO" style="edgeLabel;html=1;align=center;verticalAlign=middle;resizable=0;points=[];fontSize=16;" parent="PC0ZWLZjWZ4Z5OmDZpfl-43" vertex="1" connectable="0">
          <mxGeometry x="-0.7775" y="-1" relative="1" as="geometry">
            <mxPoint y="1" as="offset" />
          </mxGeometry>
        </mxCell>
        <mxCell id="wLT4fBUr7erfaKJgexdD-64" value="UserController" style="swimlane;html=1;startSize=20;fontSize=16;" parent="wLT4fBUr7erfaKJgexdD-55" vertex="1">
          <mxGeometry x="459" y="20" width="323" height="952" as="geometry">
            <mxRectangle x="330" y="20" width="37" height="730" as="alternateBounds" />
          </mxGeometry>
        </mxCell>
        <mxCell id="PC0ZWLZjWZ4Z5OmDZpfl-6" value="check if already exist" style="whiteSpace=wrap;html=1;fontSize=16;" parent="wLT4fBUr7erfaKJgexdD-64" vertex="1">
          <mxGeometry x="101.5" y="63" width="120" height="60" as="geometry" />
        </mxCell>
        <mxCell id="PC0ZWLZjWZ4Z5OmDZpfl-12" value="prompt already exist" style="whiteSpace=wrap;html=1;fontSize=16;" parent="wLT4fBUr7erfaKJgexdD-64" vertex="1">
          <mxGeometry x="101.5" y="181" width="120" height="60" as="geometry" />
        </mxCell>
        <mxCell id="PC0ZWLZjWZ4Z5OmDZpfl-16" value="LoginView" style="whiteSpace=wrap;html=1;fontSize=16;" parent="wLT4fBUr7erfaKJgexdD-64" vertex="1">
          <mxGeometry x="101.5" y="328" width="120" height="60" as="geometry" />
        </mxCell>
        <mxCell id="PC0ZWLZjWZ4Z5OmDZpfl-37" value="Check if registered" style="whiteSpace=wrap;html=1;fontSize=16;" parent="wLT4fBUr7erfaKJgexdD-64" vertex="1">
          <mxGeometry x="101.5" y="431" width="120" height="60" as="geometry" />
        </mxCell>
        <mxCell id="PC0ZWLZjWZ4Z5OmDZpfl-42" value="prompt not registered" style="whiteSpace=wrap;html=1;fontSize=16;" parent="wLT4fBUr7erfaKJgexdD-64" vertex="1">
          <mxGeometry x="101.5" y="580" width="120" height="60" as="geometry" />
        </mxCell>
        <mxCell id="PC0ZWLZjWZ4Z5OmDZpfl-54" value="Display DashboardView" style="whiteSpace=wrap;html=1;fontSize=16;" parent="wLT4fBUr7erfaKJgexdD-64" vertex="1">
          <mxGeometry x="101.5" y="729" width="120" height="60" as="geometry" />
        </mxCell>
        <mxCell id="PC0ZWLZjWZ4Z5OmDZpfl-53" value="" style="edgeStyle=segmentEdgeStyle;endArrow=classic;html=1;curved=0;rounded=0;endSize=8;startSize=8;sourcePerimeterSpacing=0;targetPerimeterSpacing=0;fontSize=12;" parent="wLT4fBUr7erfaKJgexdD-55" source="PC0ZWLZjWZ4Z5OmDZpfl-40" target="PC0ZWLZjWZ4Z5OmDZpfl-54" edge="1">
          <mxGeometry width="140" relative="1" as="geometry">
            <mxPoint x="89" y="854" as="sourcePoint" />
            <mxPoint x="229" y="914" as="targetPoint" />
            <Array as="points">
              <mxPoint x="159" y="779" />
            </Array>
          </mxGeometry>
        </mxCell>
        <mxCell id="PC0ZWLZjWZ4Z5OmDZpfl-55" value="YES" style="edgeLabel;html=1;align=center;verticalAlign=middle;resizable=0;points=[];fontSize=16;" parent="PC0ZWLZjWZ4Z5OmDZpfl-53" vertex="1" connectable="0">
          <mxGeometry x="-0.8481" y="-1" relative="1" as="geometry">
            <mxPoint as="offset" />
          </mxGeometry>
        </mxCell>
        <mxCell id="PC0ZWLZjWZ4Z5OmDZpfl-67" style="edgeStyle=none;curved=1;rounded=0;orthogonalLoop=1;jettySize=auto;html=1;fontSize=12;startSize=8;endSize=8;" parent="wLT4fBUr7erfaKJgexdD-55" source="PC0ZWLZjWZ4Z5OmDZpfl-62" target="PC0ZWLZjWZ4Z5OmDZpfl-16" edge="1">
          <mxGeometry relative="1" as="geometry" />
        </mxCell>
        <mxCell id="wLT4fBUr7erfaKJgexdD-88" style="edgeStyle=none;curved=1;rounded=0;orthogonalLoop=1;jettySize=auto;html=1;fontSize=12;startSize=8;endSize=8;" parent="1" source="wLT4fBUr7erfaKJgexdD-84" target="wLT4fBUr7erfaKJgexdD-87" edge="1">
          <mxGeometry relative="1" as="geometry" />
        </mxCell>
        <mxCell id="PC0ZWLZjWZ4Z5OmDZpfl-5" value="" style="edgeStyle=segmentEdgeStyle;endArrow=classic;html=1;curved=0;rounded=0;endSize=8;startSize=8;sourcePerimeterSpacing=0;targetPerimeterSpacing=0;fontSize=12;" parent="1" source="PC0ZWLZjWZ4Z5OmDZpfl-3" target="PC0ZWLZjWZ4Z5OmDZpfl-6" edge="1">
          <mxGeometry width="140" relative="1" as="geometry">
            <mxPoint x="847" y="475" as="sourcePoint" />
            <mxPoint x="715" y="969" as="targetPoint" />
            <Array as="points">
              <mxPoint x="828" y="388" />
              <mxPoint x="828" y="1151" />
            </Array>
          </mxGeometry>
        </mxCell>
        <mxCell id="PC0ZWLZjWZ4Z5OmDZpfl-20" value="" style="edgeStyle=segmentEdgeStyle;endArrow=classic;html=1;curved=0;rounded=0;endSize=8;startSize=8;sourcePerimeterSpacing=0;targetPerimeterSpacing=0;fontSize=12;" parent="1" source="PC0ZWLZjWZ4Z5OmDZpfl-12" target="PC0ZWLZjWZ4Z5OmDZpfl-21" edge="1">
          <mxGeometry width="140" relative="1" as="geometry">
            <mxPoint x="787" y="1235" as="sourcePoint" />
            <mxPoint x="959" y="630" as="targetPoint" />
            <Array as="points">
              <mxPoint x="948" y="1269" />
            </Array>
          </mxGeometry>
        </mxCell>
        <mxCell id="PC0ZWLZjWZ4Z5OmDZpfl-27" value="" style="edgeStyle=segmentEdgeStyle;endArrow=classic;html=1;curved=0;rounded=0;endSize=8;startSize=8;sourcePerimeterSpacing=0;targetPerimeterSpacing=0;fontSize=12;" parent="1" source="PC0ZWLZjWZ4Z5OmDZpfl-16" target="PC0ZWLZjWZ4Z5OmDZpfl-30" edge="1">
          <mxGeometry width="140" relative="1" as="geometry">
            <mxPoint x="675" y="1422" as="sourcePoint" />
            <mxPoint x="582" y="632" as="targetPoint" />
            <Array as="points">
              <mxPoint x="727" y="1416" />
              <mxPoint x="727" y="238" />
            </Array>
          </mxGeometry>
        </mxCell>
        <mxCell id="PC0ZWLZjWZ4Z5OmDZpfl-36" value="" style="edgeStyle=segmentEdgeStyle;endArrow=classic;html=1;curved=0;rounded=0;endSize=8;startSize=8;sourcePerimeterSpacing=0;targetPerimeterSpacing=0;fontSize=12;" parent="1" source="PC0ZWLZjWZ4Z5OmDZpfl-35" target="PC0ZWLZjWZ4Z5OmDZpfl-37" edge="1">
          <mxGeometry width="140" relative="1" as="geometry">
            <mxPoint x="690" y="482" as="sourcePoint" />
            <mxPoint x="694" y="1533" as="targetPoint" />
            <Array as="points">
              <mxPoint x="713" y="496" />
              <mxPoint x="713" y="1519" />
            </Array>
          </mxGeometry>
        </mxCell>
        <mxCell id="PC0ZWLZjWZ4Z5OmDZpfl-45" value="" style="edgeStyle=segmentEdgeStyle;endArrow=classic;html=1;curved=0;rounded=0;endSize=8;startSize=8;sourcePerimeterSpacing=0;targetPerimeterSpacing=0;fontSize=12;entryX=1;entryY=0.5;entryDx=0;entryDy=0;" parent="1" source="PC0ZWLZjWZ4Z5OmDZpfl-42" target="PC0ZWLZjWZ4Z5OmDZpfl-48" edge="1">
          <mxGeometry width="140" relative="1" as="geometry">
            <mxPoint x="700" y="1670" as="sourcePoint" />
            <mxPoint x="745" y="953" as="targetPoint" />
            <Array as="points">
              <mxPoint x="760" y="1668" />
              <mxPoint x="760" y="611" />
            </Array>
          </mxGeometry>
        </mxCell>
        <mxCell id="PC0ZWLZjWZ4Z5OmDZpfl-58" value="" style="edgeStyle=segmentEdgeStyle;endArrow=classic;html=1;curved=0;rounded=0;endSize=8;startSize=8;sourcePerimeterSpacing=0;targetPerimeterSpacing=0;fontSize=12;entryX=1;entryY=0.5;entryDx=0;entryDy=0;" parent="1" source="PC0ZWLZjWZ4Z5OmDZpfl-54" target="wLT4fBUr7erfaKJgexdD-35" edge="1">
          <mxGeometry width="140" relative="1" as="geometry">
            <mxPoint x="826" y="1810" as="sourcePoint" />
            <mxPoint x="-44" y="349" as="targetPoint" />
            <Array as="points">
              <mxPoint x="742" y="1817" />
              <mxPoint x="742" y="894" />
              <mxPoint x="-43" y="894" />
              <mxPoint x="-43" y="100" />
            </Array>
          </mxGeometry>
        </mxCell>
        <mxCell id="PC0ZWLZjWZ4Z5OmDZpfl-101" value="" style="shape=waypoint;sketch=0;size=6;pointerEvents=1;points=[];fillColor=none;resizable=0;rotatable=0;perimeter=centerPerimeter;snapToPoint=1;fontSize=16;" parent="1" vertex="1">
          <mxGeometry x="1289" y="1000" width="20" height="20" as="geometry" />
        </mxCell>
        <mxCell id="PC0ZWLZjWZ4Z5OmDZpfl-156" value="" style="edgeStyle=segmentEdgeStyle;endArrow=classic;html=1;curved=0;rounded=0;endSize=8;startSize=8;sourcePerimeterSpacing=0;targetPerimeterSpacing=0;fontSize=12;" parent="1" edge="1">
          <mxGeometry width="140" relative="1" as="geometry">
            <mxPoint x="-1733" y="-208" as="sourcePoint" />
            <mxPoint x="-1593" y="-148" as="targetPoint" />
            <Array as="points">
              <mxPoint x="-1663" y="-148" />
            </Array>
          </mxGeometry>
        </mxCell>
      </root>
    </mxGraphModel>
  </diagram>
</mxfile>
